<svg xmlns="http://www.w3.org/2000/svg" xmlns:xlink="http://www.w3.org/1999/xlink" version="1.1" x="0px" y="0px" width="142.419px" height="101.085px" viewBox="0 0 142.419 101.085" enable-background="new 0 0 142.419 101.085" xml:space="preserve"><rect y="56" fill="#FFFFFF" width="142.4" height="45.1"/><circle fill="#FFFFFF" cx="71.7" cy="34.6" r="34.6"/><g><path fill="#173F57" d="M30.596 96.136c0.313 0.2 0.7 0.3 1.1 0.334c0.58 0 1.108-0.346 1.108-1.074 c0-0.654-0.325-1.023-1.431-1.713c-1.038-0.643-1.856-1.236-1.856-2.469c0-1.406 1.131-2.184 2.492-2.184 c0.903 0 1.4 0.2 2 0.211c-0.098 0.442-0.17 1.059-0.205 1.787c-0.06 0.064-0.351 0.064-0.398 0 c-0.108-0.74-0.24-1.097-0.53-1.305c-0.264-0.197-0.565-0.275-0.939-0.275c-0.7 0-1.109 0.535-1.109 1.1 c0 0.6 0.3 0.9 0.8 1.26c0.505 0.3 0.9 0.5 1.4 0.852c0.796 0.5 1.2 1 1.2 1.9 c0 1.271-1.012 2.328-2.818 2.328c-0.795 0-1.531-0.231-1.82-0.392c-0.119-0.187-0.349-1.503-0.374-1.937 c0.039-0.072 0.339-0.16 0.4-0.123C29.872 95.3 30.2 95.8 30.6 96.1"/><path fill="#173F57" d="M42.046 95.839c-0.746-0.801-1.023-1.875-1.023-2.874c0-0.961 0.277-1.925 0.987-2.638 c0.675-0.78 1.783-1.297 3.049-1.297c2.482 0 3.8 1.8 3.8 3.836c0 0.963-0.229 1.838-0.736 2.5 c-0.77 1.061-1.962 1.576-3.205 1.576C43.612 97 42.7 96.5 42 95.8 M46.349 96 c0.602-0.58 0.818-1.64 0.818-2.724c0-1.271-0.349-2.594-1.169-3.271c-0.372-0.307-0.771-0.47-1.288-0.47 c-0.361 0-0.712 0.1-0.976 0.286c-0.735 0.506-1.025 1.58-1.025 2.774c0 1.2 0.4 2.6 1.3 3.4 c0.373 0.3 0.8 0.4 1.3 0.445C45.685 96.4 46.1 96.3 46.3 96"/><path fill="#173F57" d="M61.294 89.808c-0.422-0.235-0.927-0.309-1.434-0.309c-1.434 0-2.362 1.123-2.362 3.3 c0 1.8 0.8 3.5 2.9 3.539c0.396 0 0.867-0.084 1.216-0.407c0.299-0.257 0.637-0.728 0.915-1.222 c0.082 0 0.3 0.1 0.3 0.234c-0.144 0.52-0.638 1.491-0.963 1.713c-0.373 0.127-0.976 0.297-1.819 0.3 c-2.686 0-4.252-1.403-4.252-4.031c0-1.37 0.626-2.678 1.952-3.368c0.635-0.347 1.433-0.53 2.444-0.53 c0.963 0 1.9 0.2 2.4 0.21c-0.072 0.406-0.181 1.382-0.194 2.011c-0.046 0.062-0.407 0.099-0.42 0 C61.872 90.5 61.8 90.1 61.3 89.8"/><path fill="#173F57" d="M70.021 89.214c0.373 0 1 0 1.7 0.039c0.989 0 1.461-0.039 1.723-0.039 c0.037 0.1 0 0.3 0 0.397c-0.252 0.035-0.47 0.06-0.625 0.11c-0.267 0.099-0.289 0.273-0.301 0.6 c-0.025 0.42-0.025 1.357-0.025 2.43c0 1.4 0 2.4 0 2.848c0.012 0.3 0 0.5 0.4 0.6 c0.159 0 0.4 0.1 0.7 0.123c0.049 0.1 0 0.369-0.048 0.406c-0.421-0.014-0.951-0.037-1.722-0.037 c-0.953 0-1.385 0.037-1.822 0.037c-0.058-0.05-0.058-0.357 0-0.406c0.254-0.026 0.424-0.051 0.568-0.086 c0.328-0.074 0.386-0.211 0.422-0.63c0.025-0.394 0.025-1.765 0.025-2.973s0-1.876-0.025-2.416 c-0.024-0.271-0.086-0.458-0.312-0.53c-0.206-0.064-0.387-0.089-0.678-0.124C69.961 89.5 70 89.3 70 89.2"/><path fill="#173F57" d="M80.628 89.214c0.422 0 1.1 0 1.8 0.039h2.406c0.46 0 1.12-0.013 1.48-0.062 c0.029 0 0.1 0 0.1 0.049c-0.087 0.371-0.156 1.187-0.194 1.8c-0.06 0.063-0.373 0.075-0.434 0 c-0.049-0.431-0.107-0.666-0.193-0.861c-0.107-0.258-0.275-0.346-0.515-0.369c-0.291-0.026-1.568-0.026-1.736 0 c-0.075 0.01-0.133 0.158-0.133 0.22c-0.013 0.767-0.013 1.7 0 2.468c0 0 0 0.1 0.1 0.1 c0.375 0 1.2 0 1.64-0.025c0.254-0.013 0.351-0.138 0.424-0.406c0.05-0.138 0.071-0.296 0.104-0.457 c0.076-0.051 0.4-0.026 0.5 0.025c-0.022 0.283-0.071 0.775-0.071 1.182c0 0.4 0 0.9 0 1.2 c-0.06 0.05-0.385 0.062-0.443 0.016c-0.085-0.348-0.071-0.348-0.121-0.508c-0.059-0.171-0.159-0.32-0.41-0.345 c-0.263-0.022-1.215-0.022-1.604-0.022c-0.033 0-0.069 0.073-0.069 0.096c-0.013 0.7 0 1.7 0 2.3 c0 0.2 0.1 0.4 0.3 0.431c0.24 0.1 1 0.1 1.6 0.088c0.543-0.014 0.701-0.076 0.953-0.383 c0.217-0.259 0.447-0.703 0.629-1.123c0.07-0.011 0.4 0.1 0.4 0.16c-0.06 0.309-0.337 1.37-0.528 1.8 c-0.061 0.121-0.131 0.197-0.676 0.197c-1.012 0-2.072-0.051-3.351-0.051c-0.685 0-1.468 0.037-2.069 0 c-0.039-0.074-0.039-0.344 0-0.406c0.397-0.039 0.708-0.086 0.887-0.138c0.244-0.06 0.354-0.209 0.365-0.627 c0.035-0.542 0.035-1.565 0.035-2.961c0-0.988-0.012-1.998-0.035-2.365c-0.023-0.386-0.096-0.483-0.339-0.558 c-0.179-0.051-0.386-0.086-0.639-0.11C80.556 89.5 80.6 89.3 80.6 89.2"/><path fill="#173F57" d="M99.316 96.777c-0.434 0-1.096-0.037-1.889-0.037c-1.025 0-1.652 0.037-2.027 0 c-0.058-0.062-0.047-0.344 0-0.395c0.328-0.037 0.641-0.076 0.812-0.121c0.334-0.076 0.421-0.248 0.442-0.805 c0.048-1.146 0.037-3.55 0.037-5.513c0-0.024-0.037-0.097-0.059-0.097c-0.218-0.014-0.966-0.014-1.29 0 c-0.241 0.01-0.409 0.111-0.569 0.405c-0.142 0.271-0.299 0.653-0.443 1.087c-0.049 0.047-0.396-0.027-0.417-0.111 c0.093-0.506 0.2-1.53 0.233-2.072c0-0.025 0.088-0.087 0.125-0.074c0.324 0.1 0.7 0.2 1.1 0.172h4.321 c0.627 0 0.98-0.049 1.304-0.16c0.037 0 0.1 0.1 0.1 0.086c-0.135 0.492-0.24 1.367-0.291 2.1 c-0.047 0.051-0.396 0.063-0.435 0.015c-0.05-0.446-0.122-0.815-0.228-1.099c-0.099-0.27-0.231-0.358-0.459-0.381 c-0.41-0.026-1.191-0.014-1.408 0c-0.025 0.01-0.051 0.047-0.051 0.097c0 1.764-0.011 5 0 5.7 c0.025 0.3 0.1 0.5 0.3 0.604c0.191 0.1 0.4 0.1 0.8 0.149C99.4 96.4 99.4 96.7 99.3 96.8"/><path fill="#173F57" d="M107.962 89.214c0.387 0 1 0 1.6 0.039c0.674 0 1.484-0.024 1.676-0.039 c0.047 0 0.1 0.3 0 0.397c-0.122 0.013-0.303 0.06-0.387 0.086c-0.182 0.05-0.166 0.183-0.097 0.4 c0.252 0.6 1.2 2.3 1.4 2.703c0.023 0 0.1 0 0.1 0c0.396-0.678 1.144-2.123 1.314-2.604 c0.059-0.234 0.035-0.371-0.255-0.432c-0.181-0.051-0.336-0.075-0.601-0.11c-0.035-0.088-0.014-0.371 0.033-0.397 c0.326 0 0.9 0 1.4 0.039c0.614 0 0.952-0.039 1.339-0.039c0.047 0 0 0.3 0 0.4 c-0.195 0.035-0.398 0.06-0.533 0.11c-0.35 0.111-0.529 0.259-0.864 0.802c-0.472 0.776-1.243 2.196-1.507 2.8 c-0.088 0.171-0.137 0.319-0.137 0.529c0 0.6 0 1.1 0 1.712c0.015 0.4 0.1 0.7 0.4 0.8 c0.191 0 0.4 0.1 0.7 0.109c0.035 0.1 0 0.359-0.037 0.396c-0.375 0-1.181-0.037-1.891-0.037 c-0.929 0-1.35 0.037-1.809 0.037c-0.047-0.037-0.047-0.357 0-0.396c0.341-0.036 0.578-0.074 0.76-0.119 c0.324-0.077 0.371-0.334 0.371-0.694c0.025-0.578 0.013-1.06 0.025-1.59c0-0.187-0.061-0.418-0.144-0.615 c-0.253-0.571-0.938-1.888-1.386-2.702c-0.434-0.779-0.59-0.877-0.939-0.962c-0.169-0.051-0.324-0.073-0.542-0.098 C107.901 89.5 107.9 89.3 108 89.2"/><path fill="#173F57" d="M34.99 83.685c-0.467-0.067-0.978-0.137-1.265-0.225c-0.643-0.162-0.687-0.64-0.71-1.137 c-0.044-0.842-0.044-2.682-0.044-5.249c0-1.975 0-3.702 0.044-4.475c0.023-0.659 0.067-0.976 0.555-1.157 c0.288-0.091 0.688-0.137 1.153-0.205c0.09-0.113 0.067-0.638 0-0.727c-0.487 0-1.353 0.065-3.172 0.1 c-0.884 0-1.634-0.026-2.24-0.045c-0.153 0.194-0.29 0.447-0.426 0.774c0.268 0 0.5 0.1 0.7 0.2 c0.423 0.1 0.5 0.5 0.6 0.976c0.043 1 0 2.2 0 4.452c0 2.2 0 4.748-0.043 5.5 c-0.066 0.773-0.177 1.023-0.778 1.159c-0.265 0.069-0.577 0.112-1.04 0.159c-0.113 0.092-0.113 0.7 0 0.7 c0.797 0 1.595-0.065 3.349-0.065c1.419 0 2.4 0 3.2 0.065C35.011 84.4 35.1 83.8 35 83.7"/><path fill="#173F57" d="M36.871 70.511c0.821 0 1.5 0.1 3.2 0.065c1.554 0 2.396-0.065 3.105-0.065 c0.09 0.1 0.1 0.6 0 0.727c-0.576 0.09-0.841 0.136-1.085 0.205c-0.511 0.158-0.578 0.408-0.6 1 c-0.022 0.522-0.046 2.158-0.046 4.408c-0.021 2.5 0 4.9 0.1 5.676c0.021 0.4 0.2 0.6 0.4 0.7 c0.533 0.1 2.1 0.2 3.1 0.136c0.445 0 0.845-0.18 1.287-0.773c0.423-0.59 1.043-1.748 1.419-2.655 c0.135-0.048 0.7 0.1 0.8 0.295c-0.112 0.659-0.821 3.203-1.31 4.021c-0.068 0.183-0.309 0.295-1.176 0.3 c-1.664 0-4.525-0.112-6.078-0.112c-1.486 0-2.619 0.065-3.304 0.065c-0.088-0.111-0.088-0.656 0-0.748 c0.708-0.067 0.93-0.09 1.352-0.203c0.443-0.139 0.576-0.388 0.621-0.933c0.066-0.544 0.09-2.931 0.09-5.448 c0-2.547 0.021-3.817-0.046-4.59c-0.02-0.615-0.11-0.933-0.665-1.068c-0.266-0.092-0.753-0.137-1.176-0.205 C36.719 71.1 36.8 70.6 36.9 70.5"/><path fill="#173F57" d="M48.611 70.511c0.467 0 2.5 0.1 3.1 0.065c1.574-0.022 2.35-0.091 4.193-0.091 c1.973 0 3.5 0.5 4.7 1.479c1.442 1.2 2.2 3.1 2.2 5.181c0 2.656-1.092 4.451-2.422 5.6 c-1.619 1.339-3.571 1.817-5.923 1.817c-1.33 0-3.151-0.069-5.191-0.094h-0.931c-0.087-0.135-0.087-0.701 0-0.748 c0.6-0.048 0.953-0.113 1.355-0.203c0.443-0.114 0.663-0.41 0.708-1.068c0.067-0.887 0.067-2.816 0.067-5.248 c0-2.066 0-3.702-0.045-4.68c-0.067-0.635-0.177-0.838-0.687-1.021c-0.29-0.092-0.798-0.182-1.219-0.228 C48.48 71.1 48.5 70.6 48.6 70.5 M53.669 83.003c0.512 0.4 1.5 0.6 2.1 0.568c0.954 0 1.865-0.318 2.686-1.271 c0.865-1.049 1.419-2.432 1.419-4.817c0-2.135-0.775-4.18-2.33-5.271c-0.864-0.612-1.974-0.84-3.17-0.84 c-0.357 0-0.733 0.045-0.868 0.112c-0.088 0.047-0.176 0.205-0.198 0.342c-0.023 0.771-0.023 3.568-0.023 5.6 c0 2.1 0 4.2 0.1 4.77C53.313 82.4 53.5 82.8 53.7 83"/><path fill="#173F57" d="M63.704 70.511c0.774 0 2.1 0.1 3.2 0.065h4.439c0.841 0 2.061-0.022 2.727-0.112 c0.043 0 0.1 0 0.1 0.09c-0.156 0.684-0.286 2.182-0.355 3.318c-0.11 0.113-0.686 0.136-0.796 0.1 c-0.09-0.799-0.201-1.229-0.357-1.592c-0.199-0.478-0.512-0.637-0.954-0.682c-0.534-0.045-2.884-0.045-3.196 0 c-0.133 0.021-0.244 0.296-0.244 0.408c-0.02 1.41-0.02 3.2 0 4.544c0 0.1 0.1 0.2 0.1 0.2 c0.688 0 2.3 0 3.019-0.046c0.464-0.024 0.643-0.249 0.774-0.75c0.089-0.25 0.133-0.545 0.199-0.841 c0.135-0.09 0.735-0.045 0.8 0.046c-0.045 0.522-0.132 1.431-0.132 2.181c0 0.7 0 1.6 0 2.2 c-0.112 0.092-0.71 0.114-0.821 0.021c-0.154-0.635-0.133-0.635-0.22-0.932c-0.11-0.315-0.287-0.59-0.754-0.635 c-0.488-0.047-2.244-0.047-2.952-0.047c-0.067 0-0.134 0.139-0.134 0.182c-0.02 1.3 0 3.1 0 4.2 c0 0.4 0.2 0.7 0.5 0.796c0.444 0.1 1.8 0.2 2.9 0.159c1-0.023 1.289-0.137 1.756-0.705 c0.398-0.477 0.818-1.293 1.151-2.064c0.134-0.025 0.7 0.2 0.8 0.295c-0.112 0.566-0.622 2.521-0.977 3.2 c-0.112 0.229-0.246 0.364-1.241 0.364c-1.867 0-3.816-0.09-6.169-0.09c-1.264 0-2.706 0.065-3.814 0.1 c-0.068-0.135-0.068-0.636 0-0.748c0.731-0.067 1.308-0.158 1.641-0.252c0.445-0.111 0.644-0.382 0.663-1.156 c0.068-0.998 0.068-2.885 0.068-5.451c0-1.817-0.021-3.682-0.068-4.359c-0.043-0.707-0.177-0.888-0.618-1.023 c-0.334-0.092-0.712-0.159-1.177-0.205C63.572 71.1 63.6 70.6 63.7 70.5"/><path fill="#173F57" d="M105.169 70.511c-0.397 0-1.44 0.065-2.523 0.065c-1.4 0-2.422-0.065-2.977-0.065 c-0.064 0.043-0.092 0.635-0.021 0.727c0.575 0.1 1 0.1 1.4 0.249c0.685 0.2 0.9 0.5 1 1.3 c0.131 1.5 0.1 4.9 0.1 7.791c-0.02 0-0.043 0.02-0.065 0.02c-1.353-1.613-5.012-6.312-6.897-8.79 c-0.513-0.636-0.711-0.931-0.822-1.25c-0.266 0.022-0.842 0.045-1.44 0.045c-1.311 0-2.397-0.09-3.106-0.065 c-0.068 0.065-0.09 0.658-0.021 0.748c0.664 0.1 1.1 0.2 1.5 0.389c0.51 0.2 0.7 0.9 0.7 1.3 c-0.021 3.817-0.089 7.95-0.222 9.153c-0.067 0.773-0.288 1.136-0.776 1.294c-0.263 0.097-0.527 0.147-0.828 0.2 c-0.744-0.132-1.006-0.309-1.685-0.985c-1.085-1.115-3.015-3.976-3.547-4.951c-0.022-0.046-0.022-0.16 0.021-0.185 c1.422-0.611 2.576-1.679 2.576-3.498c0-2.021-1.443-3.476-4.128-3.476c-1.176 0-2.375 0.045-4.037 0 c-0.8 0-2.398-0.065-2.929-0.065c-0.112 0.043-0.156 0.591-0.046 0.727c0.424 0 0.8 0.1 1.1 0.2 c0.468 0.1 0.6 0.4 0.7 1.023c0.045 0.9 0 2.6 0 4.815c0 1.359-0.023 4.427-0.071 5.1 c-0.039 0.752-0.198 1.047-0.685 1.159c-0.265 0.069-0.622 0.112-1.043 0.183c-0.133 0.068-0.09 0.6 0 0.7 c0.465 0 1.443-0.065 3.151-0.065c1.666 0 2.7 0.1 3.2 0.065c0.108-0.045 0.154-0.68 0.043-0.747 c-0.576-0.068-0.822-0.114-1.195-0.205c-0.488-0.138-0.621-0.386-0.67-1.091c-0.021-0.885-0.043-2.521-0.043-3.883 c0-0.047 0.067-0.135 0.092-0.135h0.885c0.266 0 0.5 0.1 0.6 0.406c0.754 1.2 1.9 3.2 2.8 4.3 c0.223 0.3 0.6 0.7 1.1 0.931c0.865 0.4 3 0.5 4.2 0.433c0.011-0.009 4.108-0.025 4.822-0.025 c0.108-0.111 0.108-0.656 0.043-0.748c-0.554-0.067-0.953-0.137-1.309-0.225c-0.622-0.138-0.934-0.481-0.977-1.435 c-0.068-1.044-0.088-5.791-0.045-8.246c0-0.022 0.064-0.065 0.1 0c1.421 1.9 6.8 8.9 8 10.7 c0.374-0.047 1.663-0.068 1.994-0.023c-0.02-0.795-0.042-2.113-0.042-3.137c0.022-3.361 0.042-6.652 0.175-8.584 c0.091-0.842 0.288-1.135 0.911-1.34c0.289-0.091 0.557-0.137 0.907-0.205C105.24 71.1 105.2 70.6 105.2 70.5 M83.605 77.121c-0.4 0.204-1.42 0.274-2.551 0.227c-0.067 0-0.135-0.065-0.135-0.157c0-2.59 0-4.724 0.043-5.315 c0-0.115 0.092-0.296 0.158-0.342c0.176-0.09 0.512-0.113 0.664-0.113c1.932 0 3 1.3 3 3.3 C84.759 76.1 84.2 76.8 83.6 77.1"/><path fill="#173F57" d="M106.448 70.511c0.777 0 2.1 0.1 3.2 0.065h4.438c0.841 0 2.064-0.022 2.729-0.112 c0.045 0 0.1 0 0.1 0.09c-0.156 0.684-0.289 2.182-0.356 3.318c-0.11 0.113-0.688 0.136-0.799 0.1 c-0.087-0.799-0.198-1.229-0.355-1.592c-0.198-0.478-0.509-0.637-0.95-0.682c-0.533-0.045-2.887-0.045-3.199 0 c-0.133 0.021-0.242 0.296-0.242 0.408c-0.021 1.41-0.021 3.2 0 4.544c0 0.1 0.1 0.2 0.1 0.2 c0.69 0 2.3 0 3.021-0.046c0.463-0.024 0.641-0.249 0.772-0.75c0.09-0.25 0.136-0.545 0.203-0.841 c0.133-0.09 0.729-0.045 0.8 0.046c-0.045 0.522-0.133 1.431-0.133 2.181c0 0.7 0 1.6 0 2.2 c-0.112 0.092-0.712 0.114-0.821 0.021c-0.154-0.635-0.136-0.635-0.223-0.932c-0.109-0.315-0.287-0.59-0.754-0.635 c-0.487-0.047-2.242-0.047-2.952-0.047c-0.063 0-0.132 0.139-0.132 0.182c-0.021 1.3 0 3.1 0 4.2 c0 0.4 0.2 0.7 0.5 0.796c0.441 0.1 1.8 0.2 2.9 0.159c0.999-0.023 1.286-0.137 1.752-0.705 c0.399-0.477 0.821-1.293 1.151-2.064c0.135-0.025 0.7 0.2 0.8 0.295c-0.109 0.566-0.621 2.521-0.979 3.2 c-0.107 0.229-0.24 0.364-1.24 0.364c-1.86 0-3.815-0.09-6.164-0.09c-1.266 0-2.707 0.065-3.815 0.1 c-0.067-0.135-0.067-0.636 0-0.748c0.729-0.067 1.305-0.158 1.638-0.252c0.445-0.111 0.645-0.382 0.667-1.156 c0.066-0.998 0.066-2.885 0.066-5.451c0-1.817-0.021-3.682-0.066-4.359c-0.044-0.707-0.176-0.888-0.622-1.023 c-0.33-0.092-0.709-0.159-1.175-0.205C106.315 71.1 106.4 70.6 106.4 70.5"/><path fill="#173F57" d="M121.615 83.253c0.575 0.4 1.4 0.6 2.1 0.613c1.063 0 2.041-0.637 2.041-1.976 c0-1.202-0.598-1.887-2.642-3.157c-1.905-1.182-3.415-2.272-3.415-4.543c0-2.59 2.087-4.022 4.592-4.022 c1.663 0 2.6 0.3 3.6 0.386c-0.176 0.819-0.31 1.957-0.376 3.297c-0.111 0.113-0.643 0.113-0.732 0 c-0.199-1.361-0.445-2.021-0.975-2.406c-0.491-0.363-1.046-0.5-1.73-0.5c-1.289 0-2.043 0.975-2.043 2.1 c0 1 0.5 1.7 1.4 2.317c0.933 0.6 1.7 1 2.6 1.566c1.465 0.9 2.3 1.9 2.3 3.6 c0 2.338-1.865 4.291-5.191 4.291c-1.463 0-2.817-0.432-3.351-0.727c-0.222-0.341-0.644-2.77-0.687-3.564 c0.066-0.14 0.621-0.295 0.73-0.23C120.285 81.8 120.8 82.7 121.6 83.3"/><path fill="#173F57" d="M132.253 83.253c0.58 0.4 1.4 0.6 2.1 0.613c1.062 0 2.039-0.637 2.039-1.976 c0-1.202-0.6-1.887-2.639-3.157c-1.91-1.182-3.418-2.272-3.418-4.543c0-2.59 2.086-4.022 4.592-4.022 c1.664 0 2.6 0.3 3.6 0.386c-0.178 0.819-0.312 1.957-0.378 3.297c-0.108 0.113-0.644 0.113-0.731 0 c-0.2-1.361-0.445-2.021-0.978-2.406c-0.489-0.363-1.042-0.5-1.729-0.5c-1.286 0-2.039 0.975-2.039 2.1 c0 1 0.5 1.7 1.4 2.317c0.93 0.6 1.7 1 2.6 1.566c1.461 0.9 2.3 1.9 2.3 3.6 c0 2.338-1.863 4.291-5.191 4.291c-1.465 0-2.819-0.432-3.35-0.727c-0.223-0.341-0.645-2.77-0.688-3.564 c0.064-0.14 0.62-0.295 0.73-0.23C130.921 81.8 131.5 82.7 132.3 83.3"/><path fill="#173F57" d="M5.524 68.558c1.039 0 1.9 0.1 3.7 0.076c1.951 0 2.661-0.076 3.548-0.076 c0.101 0.1 0.1 0.7 0 0.83c-0.583 0.104-0.962 0.205-1.242 0.336c-0.329 0.131-0.379 0.469-0.305 0.8 c0.686 2.6 2 6.9 2.6 9.109c0.049 0.1 0.1 0 0.15-0.027c0.989-2.618 2.713-7.809 3.347-10.172 c0.38 0.1 1.3 0.1 1.6 0c0.632 2.2 3.1 8.9 3.9 10.613c0.026 0 0.1 0 0.128-0.052 c0.758-2.334 2.153-7.031 2.457-8.691c0.178-0.78 0.127-1.326-0.583-1.559c-0.431-0.156-0.862-0.232-1.595-0.336 c-0.128-0.104-0.079-0.776 0.023-0.83c0.584 0 1.8 0.1 3.1 0.076c1.672 0 2.433-0.076 2.967-0.076 c0.049 0.1 0.1 0.7 0 0.83c-0.508 0.129-0.762 0.154-1.091 0.285c-0.583 0.232-0.913 0.623-1.267 1.6 c-1.19 3.244-3.32 10.067-4.333 13.362c-0.356-0.024-1.342-0.05-1.672 0.028c-0.634-2.077-2.941-8.586-3.725-10.508 c-0.027-0.026-0.102 0-0.128 0.023c-1.039 2.854-2.863 7.941-3.624 10.456c-0.33-0.05-1.317-0.077-1.672 0 c-0.761-3.345-2.965-10.739-3.876-13.284c-0.28-0.831-0.583-1.402-1.191-1.635c-0.431-0.156-0.685-0.207-1.344-0.311 C5.372 69.3 5.4 68.6 5.5 68.6"/><path fill="#173F57" d="M5.261 62.679h52.956v-1.303H5.261V62.679z M85.27 62.679h53.177v-1.303H85.27V62.679z"/><rect x="117.6" y="92.5" fill="#173F57" width="20.7" height="1.3"/><rect x="5.4" y="92.5" fill="#173F57" width="20.7" height="1.3"/><path fill="#173F57" d="M66.47 64.666c-0.338 0-0.855-0.028-1.476-0.028c-0.801 0-1.289 0.028-1.581 0 c-0.046-0.047-0.037-0.27 0-0.309c0.255-0.029 0.5-0.057 0.631-0.097c0.264-0.056 0.329-0.193 0.349-0.625 c0.038-0.896 0.028-2.774 0.028-4.305c0-0.019-0.028-0.077-0.048-0.077c-0.17-0.009-0.753-0.009-1.006 0 c-0.188 0.007-0.321 0.086-0.443 0.319c-0.112 0.21-0.235 0.51-0.346 0.846c-0.04 0.039-0.312-0.019-0.331-0.086 c0.075-0.395 0.16-1.194 0.187-1.617c0-0.021 0.067-0.069 0.096-0.059c0.253 0.1 0.6 0.1 0.8 0.136h3.377 c0.49 0 0.762-0.04 1.016-0.126c0.029 0 0.1 0 0.1 0.066c-0.103 0.387-0.186 1.071-0.226 1.7 c-0.036 0.04-0.309 0.048-0.339 0.009c-0.036-0.347-0.093-0.634-0.178-0.859c-0.074-0.21-0.177-0.278-0.356-0.296 c-0.322-0.018-0.932-0.009-1.101 0c-0.02 0.007-0.038 0.037-0.038 0.077c0 1.378-0.009 3.9 0 4.4 c0.02 0.2 0.1 0.4 0.3 0.471c0.149 0.1 0.3 0.1 0.6 0.116C66.536 64.4 66.5 64.6 66.5 64.7"/><path fill="#173F57" d="M68.41 58.76c0.226 0 0.7 0 1.3 0.031c0.696 0 1.064-0.031 1.316-0.031 c0.031 0 0 0.28-0.006 0.31c-0.163 0.019-0.349 0.056-0.443 0.085c-0.188 0.068-0.237 0.174-0.246 0.5 c-0.009 0.422-0.009 0.982-0.009 1.646c0.009 0 0 0.1 0 0.078c0.083 0 0.2 0 1.3 0 c0.732 0 1.1 0 1.175-0.01c0.02-0.01 0.056-0.041 0.056-0.068c0-0.481 0-1.329-0.018-1.801c-0.01-0.134-0.057-0.28-0.197-0.318 c-0.134-0.056-0.291-0.075-0.521-0.105c-0.044-0.04-0.044-0.269 0-0.31c0.342 0 0.7 0 1.3 0 c0.677 0 1.054-0.031 1.282-0.031c0.033 0 0 0.3 0 0.31c-0.19 0.03-0.35 0.049-0.465 0.1 c-0.177 0.067-0.233 0.162-0.243 0.47c-0.02 0.538-0.02 1.005-0.02 2.179c0 0.7 0 1.6 0 2 c0.018 0.3 0.1 0.4 0.2 0.463c0.131 0 0.3 0.1 0.6 0.118c0.03 0 0 0.286-0.037 0.3 c-0.252 0-0.745-0.029-1.355-0.029c-0.574 0-1.129 0.029-1.348 0.029c-0.044-0.039-0.044-0.258-0.007-0.315 c0.216-0.022 0.349-0.051 0.48-0.09c0.169-0.048 0.245-0.163 0.253-0.462c0.01-0.395 0.01-1.195 0.01-1.82 c0-0.025-0.018-0.066-0.056-0.066c-0.179-0.01-0.763-0.01-1.203-0.01c-0.97 0.01-1.282 0.01-1.337 0 c-0.011 0.009-0.029 0.047-0.029 0.057c0 0.6 0 1.4 0 1.734c0.009 0.3 0 0.5 0.3 0.5 c0.121 0 0.3 0.1 0.5 0.108c0.037 0.1 0 0.286-0.038 0.315c-0.179 0-0.621-0.029-1.404-0.029 c-0.666 0-1.137 0.029-1.335 0.029c-0.027-0.029-0.037-0.271 0-0.315c0.217-0.032 0.32-0.051 0.453-0.08 c0.252-0.065 0.309-0.223 0.328-0.646c0.011-0.202 0.02-1.069 0.02-1.916c0-0.935-0.009-1.84-0.02-2.089 c-0.019-0.299-0.066-0.406-0.253-0.452c-0.151-0.048-0.302-0.067-0.518-0.097C68.363 59 68.4 58.8 68.4 58.8"/><path fill="#173F57" d="M75.778 58.76c0.326 0 0.9 0 1.4 0.031h1.883c0.358 0 0.875-0.009 1.156-0.051 c0.021 0 0 0 0 0.042c-0.067 0.288-0.122 0.924-0.152 1.405c-0.046 0.046-0.29 0.059-0.338 0 c-0.036-0.34-0.083-0.521-0.15-0.673c-0.085-0.205-0.216-0.273-0.405-0.29c-0.225-0.019-1.222-0.019-1.355 0 c-0.055 0.007-0.103 0.124-0.103 0.173c-0.008 0.595-0.008 1.3 0 1.927c0 0 0 0.1 0.1 0.1 c0.292 0 1 0 1.28-0.021c0.197-0.008 0.271-0.104 0.33-0.317c0.038-0.106 0.056-0.231 0.084-0.356 c0.057-0.037 0.311-0.02 0.4 0.021c-0.017 0.219-0.056 0.605-0.056 0.922c0 0.3 0 0.7 0 0.9 c-0.049 0.037-0.302 0.047-0.349 0.008c-0.066-0.27-0.056-0.27-0.095-0.394c-0.046-0.136-0.123-0.251-0.319-0.271 c-0.207-0.019-0.951-0.019-1.252-0.019c-0.027 0-0.056 0.058-0.056 0.074c-0.008 0.5 0 1.3 0 1.8 c0 0.2 0.1 0.3 0.2 0.336c0.189 0 0.8 0.1 1.2 0.07c0.425-0.012 0.547-0.058 0.744-0.3 c0.168-0.203 0.348-0.551 0.489-0.877c0.055-0.01 0.3 0.1 0.3 0.125c-0.047 0.242-0.266 1.069-0.414 1.4 c-0.047 0.099-0.102 0.155-0.526 0.155c-0.793 0-1.619-0.039-2.616-0.039c-0.536 0-1.147 0.029-1.619 0 c-0.028-0.058-0.028-0.271 0-0.315c0.31-0.032 0.555-0.069 0.698-0.108c0.187-0.047 0.272-0.164 0.279-0.492 c0.03-0.424 0.03-1.221 0.03-2.31c0-0.771-0.01-1.563-0.03-1.851c-0.017-0.3-0.071-0.376-0.261-0.434 c-0.143-0.036-0.3-0.066-0.498-0.085C75.72 59 75.7 58.8 75.8 58.8"/><path fill="#577441" d="M64.296 37.578l4.232 6.078c0.618 0.2 1.2 0.3 1.9 0.52l-5.903-6.896L64.296 37.578z M62.132 40.4 l1.633 2.164c0.363 0.1 0.7 0.2 1.1 0.236c-1.256-1.367-2.236-2.387-2.507-2.703L62.132 40.364z M66.724 34.4 l-0.003-0.005l-0.231 0.301l0.003 0.005l7.271 10.442c0.835 0.2 1.7 0.4 2.5 0.577l-9.551-11.316L66.724 34.372z M51.576 29.758l-4.565 5.428c0.019 2.4 0.4 4.7 1.1 6.939c0.27-0.068 0.547-0.127 0.832-0.178 c1.827-0.325 3.645-0.483 5.556-0.483c1.956 0 4 0.2 6.3 0.524c-0.345-0.47-0.773-1.055-1.272-1.732L51.576 29.758z M95.771 29.459l-5.766 8.266c0 0-0.004 0.008-0.006 0.015L77.069 20.901H77.06l-0.78 1.015v2.588 c-0.647-0.758-1.037-1.202-1.047-1.214V23.29l-0.26 0.328l0.004 0.006l1.303 1.872v3.495c0 0-2.826-3.259-2.876-3.318 c0-0.001-0.004-0.005-0.004-0.005l-0.212 0.276l0.004 0.005l3.088 4.435v3.814c-2.641-3.09-4.923-5.759-4.964-5.806 c0-0.001-0.004-0.005-0.004-0.005l-0.226 0.294l0.004 0.006l5.19 7.454v3.658c-3.47-4.061-7.219-8.448-7.228-8.459h-0.001 l-0.003-0.004l-0.227 0.296l0.003 0.005l7.456 10.708v3.348c0.261 0.1 0.5 0.1 0.8 0.153l0.009-0.002v0.003 c0.261 0 0.5 0.1 0.8 0.142c0.029 0 0.1 0 0.1 0.015l9.168-10.895l0.115 0.157l-7.495 11 c1.109 0.1 2.2 0.2 3.1 0.257l6.639-8.343l0.14 0.205l-5.313 8.143c0.812-0.026 1.736-0.099 2.703-0.25 c0 0 0 0 0 0.002c0.24-0.038 0.485-0.082 0.729-0.131c0.037-0.007 0.071-0.012 0.106-0.019l3.932-4.952l0.156 0.2 c0 0-2.051 3.343-2.709 4.401c7.121-2.671 7.187-9.634 7.187-10.803C96.401 33.1 96.2 31.2 95.8 29.5 M77.849 24.5 l0.671-0.723l0.209 0.262l-0.88 1.294V24.538z M77.849 29.02l2.533-2.673l0.147 0.199l-2.681 3.836V29.02z M77.849 34.2 l4.658-5.078l0.115 0.167l-4.773 6.851V34.199z M77.849 42.342v-2.539l6.931-7.72l0.105 0.146L77.849 42.342z"/><path fill="#173F57" d="M99.99 34.98c0-15.623-12.665-28.288-28.288-28.288c-15.624 0-28.288 12.665-28.288 28.3 c0 3.8 0.8 7.3 2.1 10.622c-2.126 1.776-1.679 4.4 1.7 6.48c-0.245-0.535-0.471-1.463 0.477-2.23 c0.078-0.062 0.164-0.124 0.258-0.185c0.007-0.004 0.013-0.008 0.02-0.013c0.091-0.057 0.189-0.112 0.296-0.167 c0.015-0.007 0.032-0.015 0.048-0.023c0.105-0.052 0.215-0.102 0.335-0.151c0.017-0.007 0.037-0.013 0.054-0.02 c0.125-0.049 0.254-0.096 0.396-0.141v-0.001c0.34-0.107 0.729-0.205 1.181-0.286c5.348-0.964 11.163-0.262 20.5 2.5 c8.306 2.5 17.3 2.9 23.08-1.472c-0.006 0 0.064-0.047 0.106-0.081c0.787-0.597 1.526-1.271 2.177-2.058 C97.509 46.1 100 42.6 100 35 M83.531 48.574c-3.425-0.019-8.02-0.798-12-1.973c-7.279-2.151-12.546-3.11-17.076-3.11 c-1.794 0-3.495 0.148-5.2 0.451c-0.966 0.172-1.752 0.443-2.426 0.785c-1.187-3.021-1.852-6.304-1.852-9.747 c0-14.759 11.965-26.724 26.725-26.724c14.759 0 26.7 12 26.7 26.724C98.425 41 95.9 48.6 83.5 48.6"/><path fill="#173F57" d="M68.19 52.63c-0.449-0.147-0.899-0.28-1.35-0.414c-0.969-0.273-1.887-0.515-2.765-0.73 c-3.382-0.791-6.65-1.194-9.298-1.195c-0.566 0.001-1.102 0.022-1.608 0.058c-0.559 0.056-1.108 0.132-1.65 0.2 c-0.371 0.068-0.69 0.148-0.97 0.235v0.001c-0.116 0.037-0.223 0.075-0.325 0.117c-0.015 0.005-0.03 0.01-0.044 0 c-0.099 0.041-0.19 0.083-0.276 0.125c-0.012 0.006-0.027 0.013-0.04 0.018c-0.087 0.046-0.167 0.092-0.242 0.1 c-0.006 0.004-0.011 0.008-0.017 0.011c-0.077 0.049-0.148 0.1-0.212 0.152c-0.663 0.536-0.625 1.167-0.476 1.6 c0.005 0 0 0 0 0.007c0.001 0 0 0 0 0.018c0 0 0.9 0.6 3.7 1.2 c-0.16-0.67 0.488-1.223 1.691-1.62c0.483-0.124 1.018-0.227 1.602-0.305c1.152-0.178 2.534-0.273 4.048-0.273 c2.467 0 5.3 0.2 8 0.794c0.033 0 0.2 0 0.244-0.064C68.262 52.7 68.2 52.6 68.2 52.6"/><path fill="#173F57" d="M71.702 10.283c-12.538 0-22.917 9.394-24.486 21.512l4.444-5.283l9.202 12.169l16.206-21.106 l12.851 16.734l5.134-7.36C91.709 17.3 82.5 10.3 71.7 10.3 M62.805 21.927c-1.818 0-3.291-1.473-3.291-3.292 c0-1.82 1.473-3.294 3.291-3.294c1.821 0 3.3 1.5 3.3 3.294C66.099 20.5 64.6 21.9 62.8 21.9"/></g></svg>