<svg xmlns="http://www.w3.org/2000/svg" xmlns:xlink="http://www.w3.org/1999/xlink" version="1.1" x="0px" y="0px" width="135px" height="100px" viewBox="0 0 135 100" enable-background="new 0 0 135 100" xml:space="preserve"><style>.style0{fill:	#F1F0E9;}.style1{fill:	#173F57;}.style2{fill:	#577441;}</style><rect y="29.67" width="135" height="70.33" class="style0"/><circle cx="67.5" cy="34.22" r="34.22" class="style0"/><g><path d="M26.401 95.177c0.311 0.23 0.74 0.33 1.12 0.331c0.573 0 1.097-0.342 1.097-1.063 c0-0.648-0.322-1.014-1.417-1.696c-1.028-0.636-1.838-1.224-1.838-2.443c0-1.393 1.12-2.161 2.468-2.161 c0.894 0 1.38 0.16 1.95 0.208c-0.098 0.438-0.169 1.048-0.203 1.769c-0.06 0.064-0.348 0.064-0.395 0.01 c-0.106-0.732-0.237-1.085-0.524-1.292c-0.262-0.194-0.56-0.272-0.93-0.272c-0.692 0-1.098 0.531-1.098 1.11 c0 0.56 0.27 0.9 0.76 1.247c0.5 0.33 0.91 0.54 1.38 0.843c0.789 0.5 1.23 1.03 1.23 1.92 c0 1.259-1.002 2.306-2.79 2.306c-0.787 0-1.516-0.23-1.803-0.389c-0.117-0.185-0.345-1.488-0.369-1.917 c0.038-0.071 0.336-0.159 0.396-0.122C25.686 94.37 25.97 94.86 26.4 95.18" class="style1"/><path d="M37.738 94.884c-0.738-0.794-1.013-1.856-1.013-2.846c0-0.951 0.274-1.906 0.978-2.611 c0.668-0.772 1.765-1.283 3.019-1.283c2.457 0 3.74 1.76 3.74 3.797c0 0.953-0.226 1.819-0.728 2.49 c-0.763 1.05-1.942 1.562-3.174 1.562C39.289 95.99 38.37 95.57 37.74 94.88 M41.997 95.05 c0.597-0.574 0.811-1.623 0.811-2.695c0-1.26-0.346-2.568-1.157-3.239c-0.368-0.304-0.764-0.465-1.275-0.465 c-0.357 0-0.705 0.099-0.967 0.283c-0.728 0.501-1.015 1.563-1.015 2.747c0 1.17 0.36 2.59 1.25 3.32 c0.369 0.28 0.77 0.44 1.31 0.439C41.34 95.45 41.73 95.3 42 95.05" class="style1"/><path d="M56.794 88.913c-0.417-0.232-0.917-0.306-1.419-0.306c-1.42 0-2.339 1.112-2.339 3.27 c0 1.76 0.84 3.5 2.83 3.504c0.392 0 0.858-0.082 1.204-0.402c0.296-0.255 0.63-0.721 0.905-1.21 c0.081 0.02 0.28 0.14 0.33 0.232c-0.143 0.514-0.632 1.476-0.954 1.695c-0.369 0.126-0.966 0.294-1.801 0.29 c-2.659 0-4.209-1.389-4.209-3.99c0-1.357 0.619-2.651 1.933-3.335c0.628-0.344 1.418-0.524 2.419-0.524 c0.953 0 1.86 0.18 2.4 0.207c-0.07 0.402-0.179 1.368-0.191 1.991c-0.045 0.061-0.403 0.098-0.416 0.04 C57.366 89.57 57.26 89.18 56.79 88.91" class="style1"/><path d="M65.434 88.325c0.369 0 0.94 0.04 1.69 0.039c0.979 0 1.447-0.039 1.706-0.039 c0.037 0.05 0.05 0.33 0 0.394c-0.249 0.035-0.465 0.06-0.618 0.109c-0.265 0.098-0.287 0.271-0.298 0.62 c-0.025 0.415-0.025 1.343-0.025 2.405c0 1.38 0 2.37 0.03 2.819c0.011 0.27 0.03 0.53 0.38 0.61 c0.157 0.05 0.43 0.08 0.68 0.121c0.049 0.06 0.01 0.365-0.047 0.402c-0.417-0.014-0.941-0.037-1.705-0.037 c-0.943 0-1.371 0.037-1.804 0.037c-0.058-0.05-0.058-0.354 0-0.402c0.251-0.026 0.42-0.05 0.562-0.085 c0.324-0.073 0.382-0.209 0.418-0.623c0.024-0.39 0.024-1.747 0.024-2.944c0-1.195 0-1.856-0.024-2.391 c-0.024-0.268-0.086-0.454-0.31-0.526c-0.204-0.062-0.383-0.087-0.671-0.122C65.375 88.65 65.39 88.38 65.43 88.33" class="style1"/><path d="M75.936 88.325c0.418 0 1.12 0.04 1.73 0.039h2.382c0.456 0 1.109-0.013 1.466-0.062 c0.029 0 0.05 0.02 0.05 0.049c-0.086 0.367-0.155 1.175-0.193 1.781c-0.059 0.063-0.369 0.075-0.428 0.04 c-0.049-0.426-0.107-0.659-0.192-0.853c-0.106-0.255-0.272-0.342-0.509-0.365c-0.288-0.026-1.554-0.026-1.72 0 c-0.074 0.01-0.132 0.157-0.132 0.217c-0.013 0.76-0.013 1.71 0 2.443c0 0.05 0.04 0.1 0.07 0.1 c0.371 0 1.23 0.01 1.623-0.025c0.251-0.013 0.347-0.137 0.42-0.402c0.049-0.137 0.07-0.293 0.104-0.453 c0.074-0.051 0.396-0.026 0.45 0.025c-0.022 0.28-0.071 0.768-0.071 1.17c0 0.38 0.01 0.87 0.02 1.18 c-0.058 0.049-0.38 0.062-0.438 0.016c-0.084-0.345-0.07-0.345-0.12-0.503c-0.058-0.169-0.157-0.316-0.406-0.341 c-0.26-0.022-1.202-0.022-1.587-0.022c-0.033 0-0.069 0.071-0.069 0.094c-0.013 0.69 0 1.66 0 2.25 c0 0.22 0.12 0.39 0.26 0.426c0.238 0.05 0.97 0.09 1.57 0.087c0.537-0.014 0.694-0.075 0.943-0.379 c0.214-0.256 0.443-0.696 0.622-1.112c0.07-0.01 0.35 0.09 0.4 0.159c-0.059 0.306-0.333 1.356-0.523 1.75 c-0.059 0.119-0.129 0.195-0.669 0.195c-1.002 0-2.051-0.051-3.316-0.051c-0.678 0-1.453 0.037-2.049 0.04 c-0.038-0.074-0.038-0.341 0-0.402c0.395-0.039 0.701-0.085 0.878-0.136c0.241-0.06 0.35-0.208 0.361-0.621 c0.035-0.537 0.035-1.55 0.035-2.931c0-0.979-0.012-1.979-0.035-2.342c-0.023-0.383-0.095-0.479-0.335-0.553 c-0.177-0.05-0.382-0.085-0.633-0.109C75.864 88.65 75.89 88.36 75.94 88.33" class="style1"/><path d="M94.437 95.812c-0.429 0-1.085-0.037-1.87-0.037c-1.015 0-1.636 0.037-2.007 0.04 c-0.058-0.062-0.047-0.341 0-0.391c0.324-0.037 0.634-0.075 0.804-0.119c0.33-0.076 0.417-0.247 0.438-0.798 c0.046-1.134 0.035-3.514 0.035-5.457c0-0.024-0.035-0.096-0.057-0.096c-0.217-0.014-0.957-0.014-1.278 0 c-0.238 0.01-0.404 0.11-0.563 0.401c-0.14 0.269-0.296 0.646-0.438 1.076c-0.048 0.046-0.393-0.027-0.413-0.11 c0.093-0.502 0.198-1.516 0.231-2.052c0-0.025 0.087-0.087 0.124-0.074c0.321 0.13 0.72 0.17 1.05 0.171h4.277 c0.622 0 0.972-0.049 1.292-0.159c0.036 0 0.08 0.06 0.1 0.085c-0.133 0.488-0.237 1.354-0.288 2.11 c-0.047 0.05-0.393 0.062-0.431 0.015c-0.048-0.442-0.12-0.808-0.225-1.088c-0.098-0.267-0.229-0.354-0.454-0.377 c-0.406-0.026-1.18-0.014-1.395 0c-0.024 0.01-0.05 0.046-0.05 0.096c0 1.745-0.011 4.92 0.03 5.63 c0.024 0.31 0.08 0.52 0.34 0.599c0.189 0.07 0.38 0.09 0.8 0.147C94.52 95.47 94.5 95.76 94.44 95.81" class="style1"/><path d="M102.996 88.325c0.384 0 0.99 0.04 1.6 0.039c0.667 0 1.469-0.024 1.658-0.039 c0.046 0.04 0.06 0.34 0.01 0.394c-0.121 0.013-0.3 0.06-0.383 0.085c-0.18 0.049-0.164 0.181-0.096 0.35 c0.249 0.55 1.14 2.32 1.34 2.677c0.023 0.01 0.06 0.01 0.08 0c0.392-0.671 1.132-2.102 1.301-2.578 c0.058-0.231 0.035-0.367-0.253-0.427c-0.179-0.05-0.332-0.074-0.595-0.109c-0.034-0.087-0.013-0.367 0.033-0.394 c0.323 0 0.85 0.04 1.4 0.039c0.608 0 0.942-0.039 1.325-0.039c0.047 0.03 0.05 0.34 0 0.39 c-0.193 0.035-0.395 0.06-0.528 0.109c-0.346 0.11-0.523 0.257-0.854 0.794c-0.468 0.769-1.231 2.174-1.492 2.73 c-0.087 0.169-0.136 0.316-0.136 0.523c0 0.55 0.02 1.07 0.03 1.695c0.015 0.42 0.06 0.66 0.4 0.75 c0.189 0.04 0.4 0.07 0.69 0.108c0.034 0.05 0.01 0.355-0.037 0.393c-0.371 0-1.169-0.037-1.872-0.037 c-0.919 0-1.336 0.037-1.79 0.037c-0.047-0.037-0.047-0.354 0-0.393c0.338-0.036 0.572-0.073 0.753-0.117 c0.32-0.077 0.366-0.331 0.366-0.688c0.025-0.572 0.013-1.05 0.025-1.574c0-0.186-0.06-0.414-0.142-0.61 c-0.25-0.565-0.929-1.868-1.372-2.674c-0.43-0.772-0.584-0.869-0.93-0.953c-0.168-0.05-0.321-0.072-0.538-0.097 C102.937 88.65 102.96 88.38 103 88.33" class="style1"/><path d="M30.752 82.851c-0.462-0.067-0.968-0.136-1.252-0.223c-0.637-0.16-0.681-0.634-0.703-1.125 c-0.044-0.834-0.044-2.655-0.044-5.196c0-1.955 0-3.666 0.044-4.431c0.022-0.653 0.066-0.966 0.55-1.146 c0.285-0.09 0.681-0.136 1.141-0.203c0.09-0.112 0.066-0.632 0-0.72c-0.481 0-1.339 0.064-3.14 0.06 c-0.875 0-1.617-0.026-2.218-0.044c-0.151 0.192-0.287 0.442-0.422 0.767c0.266 0.04 0.49 0.09 0.73 0.16 c0.419 0.14 0.53 0.47 0.57 0.967c0.043 0.99 0.04 2.2 0.04 4.407c0 2.2 0 4.701-0.043 5.42 c-0.065 0.766-0.175 1.014-0.77 1.147c-0.263 0.069-0.572 0.111-1.03 0.158c-0.111 0.09-0.111 0.65 0 0.74 c0.789 0 1.579-0.064 3.315-0.064c1.405 0 2.37 0.04 3.14 0.064C30.772 83.53 30.84 82.96 30.75 82.85" class="style1"/><path d="M32.615 69.808c0.812 0 1.45 0.06 3.14 0.064c1.539 0 2.372-0.064 3.074-0.064 c0.089 0.09 0.09 0.61 0 0.72c-0.57 0.089-0.833 0.135-1.074 0.203c-0.506 0.156-0.572 0.403-0.594 0.94 c-0.021 0.517-0.046 2.137-0.046 4.364c-0.021 2.43 0.02 4.9 0.07 5.619c0.021 0.41 0.24 0.61 0.42 0.68 c0.527 0.14 2.09 0.16 3.07 0.135c0.441 0 0.837-0.179 1.275-0.767c0.418-0.583 1.032-1.73 1.404-2.629 c0.134-0.047 0.7 0.13 0.77 0.292c-0.11 0.653-0.812 3.172-1.297 3.98c-0.066 0.182-0.305 0.292-1.164 0.29 c-1.646 0-4.479-0.11-6.018-0.11c-1.471 0-2.592 0.064-3.271 0.064c-0.087-0.11-0.087-0.65 0-0.74 c0.701-0.067 0.921-0.089 1.339-0.202c0.438-0.137 0.569-0.384 0.614-0.923c0.066-0.538 0.09-2.901 0.09-5.395 c0-2.521 0.021-3.778-0.046-4.544c-0.02-0.608-0.108-0.923-0.658-1.057c-0.264-0.091-0.746-0.136-1.165-0.203 C32.465 70.39 32.51 69.87 32.62 69.81" class="style1"/><path d="M44.237 69.808c0.463 0 2.44 0.06 3.08 0.064c1.559-0.022 2.326-0.09 4.151-0.09 c1.953 0 3.47 0.48 4.65 1.465c1.429 1.22 2.2 3.08 2.2 5.129c0 2.63-1.08 4.407-2.397 5.51 c-1.604 1.325-3.536 1.799-5.864 1.799c-1.316 0-3.12-0.069-5.139-0.093h-0.922c-0.086-0.133-0.086-0.694 0-0.74 c0.594-0.048 0.943-0.112 1.342-0.202c0.438-0.112 0.656-0.406 0.7-1.058c0.066-0.877 0.066-2.788 0.066-5.195 c0-2.045 0-3.665-0.044-4.633c-0.066-0.629-0.176-0.829-0.681-1.011c-0.287-0.09-0.79-0.18-1.207-0.225 C44.108 70.42 44.15 69.9 44.24 69.81 M49.245 82.176c0.507 0.42 1.47 0.56 2.04 0.562c0.944 0 1.847-0.315 2.66-1.258 c0.855-1.038 1.404-2.408 1.404-4.77c0-2.113-0.768-4.138-2.307-5.218c-0.855-0.606-1.954-0.831-3.139-0.831 c-0.354 0-0.726 0.044-0.858 0.11c-0.088 0.046-0.175 0.203-0.196 0.338c-0.023 0.765-0.023 3.534-0.023 5.56 c0 2.09 0 4.12 0.06 4.723C48.893 81.61 49.05 81.97 49.24 82.18" class="style1"/><path d="M59.18 69.808c0.766 0 2.06 0.06 3.18 0.064h4.395c0.833 0 2.041-0.022 2.7-0.111 c0.043 0 0.09 0.05 0.09 0.089c-0.155 0.678-0.284 2.161-0.352 3.286c-0.109 0.112-0.68 0.135-0.789 0.07 c-0.089-0.791-0.198-1.216-0.353-1.575c-0.197-0.474-0.507-0.631-0.945-0.676c-0.528-0.044-2.854-0.044-3.164 0 c-0.131 0.021-0.241 0.293-0.241 0.404c-0.021 1.396-0.021 3.15 0 4.499c0 0.09 0.07 0.18 0.13 0.18 c0.681 0 2.26 0.02 2.988-0.045c0.46-0.024 0.637-0.247 0.767-0.743c0.088-0.247 0.132-0.54 0.196-0.833 c0.135-0.088 0.729-0.044 0.84 0.046c-0.044 0.518-0.13 1.417-0.13 2.159c0 0.69 0.02 1.6 0.04 2.18 c-0.112 0.092-0.703 0.114-0.813 0.021c-0.152-0.628-0.132-0.628-0.218-0.922c-0.109-0.312-0.284-0.585-0.747-0.628 c-0.482-0.047-2.221-0.047-2.922-0.047c-0.066 0-0.133 0.137-0.133 0.18c-0.021 1.26 0 3.06 0 4.14 c0 0.41 0.22 0.72 0.48 0.788c0.439 0.09 1.78 0.16 2.9 0.158c0.99-0.023 1.276-0.136 1.738-0.698 c0.395-0.473 0.811-1.28 1.14-2.044c0.133-0.025 0.66 0.16 0.75 0.291c-0.111 0.561-0.616 2.496-0.968 3.21 c-0.11 0.227-0.243 0.36-1.229 0.36c-1.849 0-3.778-0.088-6.107-0.088c-1.251 0-2.679 0.064-3.776 0.06 c-0.067-0.133-0.067-0.63 0-0.74c0.725-0.067 1.295-0.157 1.625-0.25c0.44-0.109 0.638-0.377 0.656-1.145 c0.067-0.988 0.067-2.855 0.067-5.397c0-1.799-0.021-3.645-0.067-4.315c-0.043-0.699-0.175-0.879-0.612-1.013 c-0.33-0.091-0.705-0.158-1.165-0.203C59.049 70.42 59.09 69.87 59.18 69.81" class="style1"/><path d="M100.231 69.808c-0.394 0-1.426 0.064-2.498 0.064c-1.386 0-2.397-0.064-2.947-0.064 c-0.063 0.042-0.09 0.628-0.021 0.72c0.57 0.07 0.96 0.14 1.38 0.246c0.678 0.18 0.88 0.52 0.94 1.26 c0.13 1.5 0.09 4.83 0.09 7.713c-0.02 0-0.043 0.019-0.065 0.019c-1.339-1.597-4.962-6.249-6.828-8.701 c-0.508-0.631-0.704-0.923-0.813-1.238c-0.264 0.021-0.834 0.044-1.427 0.044c-1.298 0-2.374-0.089-3.076-0.064 c-0.066 0.064-0.088 0.651-0.021 0.74c0.658 0.07 1.1 0.18 1.51 0.386c0.505 0.22 0.72 0.85 0.72 1.32 c-0.021 3.779-0.088 7.871-0.22 9.062c-0.067 0.767-0.285 1.125-0.769 1.281c-0.261 0.096-0.522 0.146-0.82 0.19 c-0.736-0.131-0.995-0.305-1.668-0.975c-1.074-1.104-2.984-3.937-3.511-4.902c-0.022-0.046-0.022-0.159 0.021-0.184 c1.408-0.604 2.55-1.661 2.55-3.462c0-2.001-1.429-3.441-4.087-3.441c-1.164 0-2.351 0.044-3.996 0.04 c-0.792 0-2.373-0.064-2.899-0.064c-0.11 0.042-0.154 0.586-0.046 0.72c0.42 0.04 0.84 0.14 1.12 0.2 c0.464 0.11 0.64 0.4 0.66 1.013c0.044 0.9 0.04 2.56 0.04 4.768c0 1.346-0.022 4.383-0.069 5.03 c-0.039 0.744-0.196 1.036-0.679 1.147c-0.263 0.069-0.616 0.111-1.032 0.182c-0.132 0.066-0.089 0.63 0 0.72 c0.46 0 1.429-0.064 3.119-0.064c1.648 0 2.7 0.06 3.16 0.064c0.108-0.044 0.153-0.673 0.043-0.739 c-0.57-0.068-0.813-0.113-1.183-0.204c-0.483-0.136-0.615-0.382-0.663-1.079c-0.021-0.876-0.043-2.497-0.043-3.845 c0-0.046 0.067-0.133 0.091-0.133h0.876c0.263 0.02 0.46 0.13 0.62 0.401c0.747 1.19 1.86 3.22 2.74 4.27 c0.221 0.29 0.62 0.7 1.08 0.923c0.855 0.43 2.94 0.52 4.13 0.427c0.011-0.008 4.067-0.024 4.773-0.024 c0.107-0.11 0.107-0.65 0.043-0.74c-0.548-0.067-0.943-0.136-1.296-0.223c-0.615-0.136-0.924-0.477-0.967-1.42 c-0.067-1.034-0.087-5.733-0.045-8.165c0-0.021 0.064-0.063 0.11 0c1.406 1.85 6.7 8.84 7.95 10.64 c0.37-0.047 1.646-0.068 1.974-0.023c-0.019-0.786-0.041-2.092-0.041-3.104c0.022-3.328 0.041-6.586 0.173-8.5 c0.09-0.833 0.284-1.122 0.902-1.325c0.286-0.09 0.551-0.136 0.897-0.203C100.302 70.44 100.3 69.87 100.23 69.81 M78.883 76.351c-0.397 0.203-1.406 0.272-2.525 0.226c-0.066 0-0.134-0.065-0.134-0.156c0-2.564 0-4.677 0.043-5.263 c0-0.113 0.091-0.293 0.156-0.339c0.174-0.088 0.507-0.111 0.657-0.111c1.913 0 2.94 1.28 2.94 3.24 C80.024 75.39 79.5 76.04 78.88 76.35" class="style1"/><path d="M101.497 69.808c0.771 0 2.06 0.06 3.18 0.064h4.394c0.832 0 2.044-0.022 2.702-0.111 c0.044 0 0.09 0.05 0.09 0.089c-0.154 0.678-0.286 2.161-0.353 3.286c-0.109 0.112-0.682 0.135-0.791 0.07 c-0.086-0.791-0.196-1.216-0.352-1.575c-0.196-0.474-0.505-0.631-0.94-0.676c-0.529-0.044-2.858-0.044-3.168 0 c-0.131 0.021-0.24 0.293-0.24 0.404c-0.021 1.396-0.021 3.15 0 4.499c0 0.09 0.07 0.18 0.13 0.18 c0.684 0 2.26 0.02 2.991-0.045c0.457-0.024 0.634-0.247 0.764-0.743c0.09-0.247 0.135-0.54 0.202-0.833 c0.131-0.088 0.722-0.044 0.83 0.046c-0.045 0.518-0.131 1.417-0.131 2.159c0 0.69 0.02 1.6 0.04 2.18 c-0.11 0.092-0.704 0.114-0.812 0.021c-0.153-0.628-0.135-0.628-0.22-0.922c-0.108-0.312-0.285-0.585-0.747-0.628 c-0.482-0.047-2.22-0.047-2.923-0.047c-0.062 0-0.131 0.137-0.131 0.18c-0.021 1.26 0 3.06 0 4.14 c0 0.41 0.22 0.72 0.49 0.788c0.437 0.09 1.78 0.16 2.9 0.158c0.989-0.023 1.273-0.136 1.734-0.698 c0.395-0.473 0.812-1.28 1.14-2.044c0.134-0.025 0.66 0.16 0.75 0.291c-0.108 0.561-0.614 2.496-0.968 3.21 c-0.107 0.227-0.238 0.36-1.229 0.36c-1.842 0-3.777-0.088-6.103-0.088c-1.253 0-2.681 0.064-3.777 0.06 c-0.066-0.133-0.066-0.63 0-0.74c0.722-0.067 1.292-0.157 1.621-0.25c0.44-0.109 0.639-0.377 0.661-1.145 c0.065-0.988 0.065-2.855 0.065-5.397c0-1.799-0.021-3.645-0.065-4.315c-0.044-0.699-0.175-0.879-0.616-1.013 c-0.326-0.091-0.702-0.158-1.163-0.203C101.365 70.42 101.41 69.87 101.5 69.81" class="style1"/><path d="M116.513 82.423c0.57 0.43 1.36 0.61 2.06 0.607c1.054 0 2.021-0.631 2.021-1.956 c0-1.189-0.591-1.868-2.615-3.125c-1.886-1.171-3.381-2.251-3.381-4.499c0-2.563 2.066-3.982 4.546-3.982 c1.646 0 2.55 0.29 3.58 0.382c-0.174 0.812-0.307 1.938-0.372 3.265c-0.109 0.112-0.637 0.112-0.725 0.02 c-0.198-1.349-0.441-2.002-0.965-2.383c-0.486-0.358-1.035-0.494-1.714-0.494c-1.275 0-2.022 0.964-2.022 2.04 c0 1.04 0.51 1.67 1.41 2.294c0.923 0.61 1.67 0.99 2.55 1.551c1.451 0.92 2.26 1.91 2.26 3.53 c0 2.314-1.847 4.248-5.14 4.248c-1.448 0-2.789-0.427-3.317-0.719c-0.22-0.337-0.637-2.742-0.68-3.529 c0.066-0.138 0.615-0.292 0.724-0.228C115.196 80.94 115.72 81.84 116.51 82.42" class="style1"/><path d="M127.046 82.423c0.573 0.43 1.36 0.61 2.07 0.607c1.052 0 2.019-0.631 2.019-1.956 c0-1.189-0.594-1.868-2.612-3.125c-1.892-1.171-3.384-2.251-3.384-4.499c0-2.563 2.065-3.982 4.545-3.982 c1.648 0 2.55 0.29 3.58 0.382c-0.175 0.812-0.309 1.938-0.374 3.265c-0.106 0.112-0.637 0.112-0.724 0.02 c-0.198-1.349-0.44-2.002-0.968-2.383c-0.484-0.358-1.031-0.494-1.712-0.494c-1.273 0-2.019 0.964-2.019 2.04 c0 1.04 0.5 1.67 1.4 2.294c0.921 0.61 1.67 0.99 2.55 1.551c1.445 0.92 2.26 1.91 2.26 3.53 c0 2.314-1.844 4.248-5.139 4.248c-1.451 0-2.792-0.427-3.316-0.719c-0.222-0.337-0.639-2.742-0.681-3.529 c0.063-0.138 0.613-0.292 0.724-0.228C125.727 80.94 126.26 81.84 127.05 82.42" class="style1"/><path d="M1.581 67.875c1.027 0 1.88 0.07 3.69 0.075c1.932 0 2.635-0.075 3.514-0.075 c0.1 0.07 0.12 0.72 0 0.822c-0.578 0.102-0.952 0.202-1.23 0.332c-0.326 0.129-0.375 0.464-0.302 0.77 c0.679 2.6 1.93 6.81 2.61 9.019c0.049 0.05 0.1 0.03 0.148-0.027c0.979-2.592 2.687-7.729 3.314-10.069 c0.376 0.05 1.28 0.05 1.6 0c0.626 2.13 3.11 8.81 3.81 10.507c0.026 0.03 0.1 0 0.127-0.051 c0.75-2.312 2.131-6.962 2.433-8.605c0.176-0.772 0.126-1.312-0.577-1.543c-0.427-0.154-0.854-0.23-1.579-0.332 c-0.127-0.104-0.079-0.77 0.022-0.822c0.578 0 1.76 0.07 3.09 0.075c1.655 0 2.409-0.075 2.938-0.075 c0.049 0.07 0.07 0.69 0 0.822c-0.503 0.127-0.755 0.152-1.08 0.282c-0.577 0.229-0.904 0.616-1.255 1.56 c-1.178 3.212-3.286 9.968-4.289 13.229c-0.353-0.024-1.329-0.049-1.655 0.028c-0.628-2.057-2.912-8.5-3.688-10.403 c-0.026-0.026-0.101 0-0.126 0.023c-1.029 2.825-2.835 7.861-3.589 10.352c-0.326-0.049-1.304-0.076-1.655 0 c-0.753-3.312-2.936-10.632-3.837-13.151c-0.277-0.823-0.577-1.389-1.18-1.618c-0.426-0.155-0.678-0.206-1.33-0.308 C1.43 68.59 1.45 67.93 1.58 67.88" class="style1"/><path d="M1.319 62.054h52.429v-1.29H1.319V62.054z M80.531 62.054h52.646v-1.29H80.531V62.054z" class="style1"/><rect x="112.58" y="91.61" width="20.46" height="1.29" class="style1"/><rect x="1.45" y="91.61" width="20.47" height="1.29" class="style1"/><path d="M61.919 64.021c-0.335 0-0.847-0.028-1.462-0.028c-0.793 0-1.275 0.028-1.564 0.03 c-0.046-0.047-0.037-0.267 0-0.306c0.252-0.029 0.494-0.057 0.625-0.096c0.261-0.056 0.325-0.191 0.346-0.619 c0.036-0.886 0.026-2.747 0.026-4.262c0-0.019-0.026-0.076-0.047-0.076c-0.169-0.009-0.746-0.009-0.996 0 c-0.187 0.007-0.317 0.084-0.438 0.315c-0.111 0.208-0.232 0.505-0.343 0.837c-0.04 0.039-0.31-0.018-0.327-0.085 c0.073-0.391 0.158-1.183 0.185-1.601c0-0.021 0.066-0.068 0.095-0.059c0.251 0.1 0.56 0.14 0.82 0.135h3.343 c0.485 0 0.755-0.039 1.006-0.125c0.029 0 0.06 0.05 0.07 0.065c-0.102 0.383-0.184 1.061-0.224 1.65 c-0.035 0.039-0.306 0.047-0.336 0.008c-0.035-0.343-0.091-0.627-0.176-0.85c-0.073-0.208-0.176-0.275-0.352-0.292 c-0.319-0.018-0.924-0.009-1.091 0c-0.02 0.007-0.038 0.036-0.038 0.076c0 1.365-0.009 3.84 0.02 4.4 c0.02 0.24 0.07 0.4 0.26 0.466c0.148 0.06 0.3 0.07 0.62 0.115C61.984 63.75 61.97 63.98 61.92 64.02" class="style1"/><path d="M63.839 58.175c0.224 0 0.64 0.03 1.31 0.03c0.689 0 1.053-0.03 1.303-0.03 c0.03 0.05 0.03 0.277-0.006 0.307c-0.162 0.019-0.346 0.055-0.438 0.084c-0.187 0.067-0.234 0.172-0.243 0.47 c-0.009 0.418-0.009 0.973-0.009 1.63c0.009 0.04 0.03 0.07 0.05 0.078c0.082 0.02 0.21 0.02 1.33 0.02 c0.726 0 1.05 0 1.164-0.01c0.02-0.01 0.056-0.041 0.056-0.068c0-0.476 0-1.316-0.019-1.783c-0.01-0.132-0.057-0.277-0.195-0.314 c-0.132-0.056-0.288-0.074-0.516-0.104c-0.043-0.04-0.043-0.267 0-0.307c0.339 0 0.69 0.03 1.33 0.03 c0.67 0 1.043-0.03 1.269-0.03c0.033 0.04 0.04 0.26 0 0.307c-0.188 0.03-0.346 0.048-0.46 0.1 c-0.175 0.067-0.23 0.16-0.24 0.465c-0.021 0.533-0.021 0.995-0.021 2.157c0 0.69 0 1.54 0.02 1.93 c0.018 0.26 0.06 0.4 0.23 0.458c0.13 0.05 0.28 0.08 0.58 0.117c0.03 0.04 0.01 0.283-0.036 0.31 c-0.25 0-0.737-0.029-1.342-0.029c-0.568 0-1.117 0.029-1.335 0.029c-0.043-0.039-0.043-0.255-0.007-0.312 c0.214-0.022 0.346-0.051 0.476-0.089c0.167-0.048 0.242-0.161 0.25-0.457c0.011-0.391 0.011-1.184 0.011-1.803 c0-0.025-0.019-0.065-0.056-0.065c-0.178-0.01-0.756-0.01-1.191-0.01c-0.96 0.01-1.269 0.01-1.323 0.03 c-0.011 0.009-0.028 0.047-0.028 0.057c0 0.57 0 1.36 0.01 1.718c0.009 0.29 0.05 0.45 0.27 0.51 c0.12 0.04 0.32 0.07 0.53 0.107c0.037 0.06 0 0.283-0.038 0.312c-0.178 0-0.614-0.029-1.39-0.029 c-0.66 0-1.126 0.029-1.322 0.029c-0.026-0.029-0.036-0.268 0-0.312c0.215-0.032 0.317-0.051 0.449-0.079 c0.249-0.065 0.306-0.221 0.324-0.64c0.012-0.199 0.021-1.059 0.021-1.896c0-0.925-0.009-1.822-0.021-2.069 c-0.019-0.295-0.065-0.401-0.251-0.447c-0.148-0.048-0.299-0.066-0.513-0.096C63.793 58.44 63.81 58.2 63.84 58.17" class="style1"/><path d="M71.134 58.175c0.322 0 0.87 0.03 1.35 0.03h1.863c0.354 0 0.866-0.009 1.145-0.05 c0.021 0 0.04 0.02 0.04 0.041c-0.066 0.286-0.12 0.916-0.15 1.391c-0.046 0.045-0.287 0.058-0.335 0.03 c-0.036-0.336-0.082-0.516-0.148-0.667c-0.084-0.203-0.214-0.27-0.401-0.286c-0.222-0.019-1.209-0.019-1.341 0 c-0.055 0.006-0.103 0.122-0.103 0.171c-0.008 0.588-0.008 1.33 0 1.908c0 0.04 0.03 0.08 0.06 0.08 c0.289 0 0.96 0.01 1.268-0.021c0.195-0.008 0.269-0.104 0.326-0.313c0.038-0.106 0.056-0.23 0.084-0.354 c0.056-0.037 0.308-0.02 0.35 0.021c-0.017 0.216-0.056 0.6-0.056 0.912c0 0.3 0.01 0.68 0.02 0.93 c-0.049 0.036-0.299 0.046-0.346 0.008c-0.065-0.268-0.056-0.268-0.095-0.391c-0.045-0.134-0.121-0.248-0.315-0.268 c-0.204-0.019-0.94-0.019-1.239-0.019c-0.026 0-0.056 0.058-0.056 0.074c-0.008 0.54 0 1.3 0 1.76 c0 0.17 0.09 0.31 0.2 0.333c0.188 0.04 0.75 0.07 1.23 0.068c0.42-0.012 0.541-0.056 0.736-0.297 c0.166-0.2 0.344-0.545 0.483-0.867c0.055-0.01 0.28 0.07 0.32 0.124c-0.047 0.239-0.264 1.058-0.41 1.36 c-0.048 0.098-0.102 0.154-0.521 0.154c-0.785 0-1.603-0.039-2.59-0.039c-0.53 0-1.136 0.029-1.604 0.03 c-0.026-0.058-0.026-0.268 0-0.312c0.308-0.032 0.55-0.068 0.691-0.107c0.186-0.047 0.27-0.162 0.276-0.487 c0.029-0.42 0.029-1.209 0.029-2.286c0-0.763-0.01-1.548-0.029-1.832c-0.017-0.298-0.07-0.373-0.259-0.43 c-0.141-0.036-0.297-0.065-0.493-0.084C71.076 58.43 71.09 58.2 71.13 58.17" class="style1"/><path d="M59.766 37.203l4.19 6.018c0.611 0.16 1.24 0.33 1.88 0.514l-5.844-6.827L59.766 37.203z M57.623 39.96 l1.617 2.142c0.359 0.07 0.72 0.15 1.1 0.234c-1.244-1.354-2.214-2.364-2.482-2.676L57.623 39.961z M62.17 34.03 l-0.003-0.004l-0.229 0.297l0.003 0.005l7.198 10.338c0.827 0.21 1.66 0.4 2.49 0.571l-9.456-11.203L62.17 34.029z M47.173 29.462l-4.52 5.374c0.019 2.34 0.36 4.64 1.04 6.87c0.268-0.067 0.542-0.125 0.824-0.176 c1.809-0.322 3.608-0.479 5.501-0.479c1.937 0 4 0.17 6.26 0.52c-0.342-0.465-0.766-1.045-1.259-1.715L47.173 29.462z M90.927 29.166l-5.707 8.184c0 0-0.004 0.008-0.006 0.015L72.411 20.693h-0.009l-0.771 1.005v2.562 c-0.641-0.75-1.027-1.189-1.037-1.201v-0.001l-0.257 0.325l0.004 0.006l1.29 1.853v3.46c0 0-2.798-3.227-2.848-3.285 c0-0.001-0.004-0.005-0.004-0.005l-0.21 0.273l0.004 0.005l3.058 4.391v3.776c-2.614-3.06-4.874-5.702-4.915-5.748 c0-0.001-0.004-0.005-0.004-0.005l-0.224 0.291l0.004 0.006l5.139 7.38v3.621c-3.436-4.02-7.147-8.363-7.155-8.375h-0.001 l-0.004-0.004l-0.225 0.293l0.003 0.005l7.382 10.602v3.314c0.258 0.05 0.52 0.1 0.77 0.151l0.009-0.002v0.003 c0.259 0.05 0.52 0.1 0.77 0.141c0.029 0.01 0.06 0.01 0.09 0.015l9.075-10.787l0.115 0.156L75.04 45.81 c1.099 0.14 2.13 0.23 3.08 0.255l6.572-8.26l0.139 0.203l-5.26 8.062c0.803-0.026 1.719-0.098 2.676-0.248 c0 0 0 0 0 0.002c0.237-0.038 0.48-0.082 0.722-0.129c0.037-0.007 0.07-0.012 0.105-0.019l3.893-4.903l0.155 0.2 c0 0-2.03 3.31-2.683 4.357c7.05-2.644 7.115-9.538 7.115-10.695C91.551 32.75 91.33 30.92 90.93 29.17 M73.184 24.29 l0.664-0.716l0.207 0.26l-0.871 1.281V24.293z M73.184 28.73l2.509-2.646l0.146 0.197l-2.654 3.798V28.73z M73.184 33.86 l4.611-5.028l0.115 0.166l-4.727 6.783V33.858z M73.184 41.92v-2.514l6.861-7.644l0.104 0.145L73.184 41.92z" class="style2"/><path d="M95.104 34.631c0-15.467-12.538-28.005-28.006-28.005S39.092 19.16 39.09 34.63 c0 3.72 0.74 7.27 2.06 10.516c-2.105 1.758-1.662 4.31 1.65 6.416c-0.243-0.53-0.467-1.448 0.473-2.208 c0.076-0.061 0.162-0.123 0.255-0.184c0.007-0.004 0.013-0.007 0.02-0.012c0.09-0.057 0.188-0.112 0.293-0.166 c0.015-0.007 0.032-0.015 0.048-0.023c0.104-0.052 0.213-0.101 0.332-0.149c0.017-0.007 0.036-0.013 0.053-0.02 c0.124-0.049 0.252-0.096 0.392-0.14v-0.001c0.337-0.106 0.723-0.203 1.17-0.284c5.295-0.954 11.052-0.259 20.34 2.52 c8.224 2.46 17.09 2.83 22.85-1.457c-0.006 0.01 0.063-0.047 0.105-0.081c0.778-0.591 1.511-1.258 2.154-2.037 C92.648 45.67 95.1 42.19 95.1 34.63 M78.809 48.09c-3.391-0.019-7.939-0.79-11.88-1.953 c-7.207-2.13-12.421-3.079-16.905-3.079c-1.777 0-3.461 0.146-5.149 0.447c-0.956 0.17-1.734 0.438-2.401 0.78 c-1.175-2.991-1.833-6.241-1.833-9.65c0-14.612 11.846-26.458 26.458-26.458c14.611 0 26.46 11.85 26.46 26.46 C93.555 40.64 91.1 48.16 78.81 48.09" class="style1"/><path d="M63.621 52.106c-0.445-0.146-0.89-0.278-1.337-0.41c-0.959-0.27-1.868-0.51-2.737-0.723 c-3.348-0.783-6.583-1.182-9.205-1.183c-0.561 0.001-1.091 0.022-1.592 0.058c-0.554 0.056-1.097 0.131-1.634 0.23 c-0.367 0.067-0.684 0.146-0.96 0.233v0.001c-0.115 0.036-0.222 0.074-0.322 0.116c-0.015 0.005-0.029 0.01-0.044 0.01 c-0.098 0.04-0.188 0.082-0.272 0.124c-0.013 0.006-0.027 0.013-0.04 0.018c-0.086 0.045-0.165 0.091-0.239 0.14 c-0.006 0.004-0.011 0.008-0.017 0.011c-0.077 0.048-0.146 0.099-0.21 0.15c-0.656 0.531-0.619 1.155-0.472 1.6 c0.005 0 0.01 0 0.01 0.007c0.001 0.01 0 0.01 0.01 0.018c0 0 0.92 0.64 3.66 1.15 c-0.159-0.664 0.482-1.21 1.673-1.604c0.479-0.123 1.009-0.225 1.587-0.302c1.141-0.176 2.509-0.271 4.007-0.271 c2.443 0 5.23 0.25 7.95 0.787c0.032 0.01 0.2 0.03 0.24-0.064C63.692 52.16 63.66 52.12 63.62 52.11" class="style1"/><path d="M67.098 10.18c-12.413 0-22.688 9.3-24.241 21.297l4.399-5.23l9.11 12.047L72.41 17.399l12.723 16.57 l5.082-7.287C86.905 17.09 77.8 10.18 67.1 10.18 M58.289 21.708c-1.799 0-3.258-1.458-3.258-3.259 c0-1.802 1.459-3.262 3.258-3.262c1.803 0 3.26 1.46 3.26 3.262C61.551 20.25 60.09 21.71 58.29 21.71" class="style1"/></g></svg>