<?xml version="1.0" encoding="utf-8"?>
<!-- Generator: Adobe Illustrator 17.1.0, SVG Export Plug-In . SVG Version: 6.00 Build 0)  -->
<!DOCTYPE svg PUBLIC "-//W3C//DTD SVG 1.1//EN" "http://www.w3.org/Graphics/SVG/1.1/DTD/svg11.dtd">
<svg version="1.1" id="Layer_1" xmlns="http://www.w3.org/2000/svg" xmlns:xlink="http://www.w3.org/1999/xlink" x="0px" y="0px"
	 viewBox="0 0 150 100" enable-background="new 0 0 150 100" xml:space="preserve">
<g>
	<path fill="#003A5D" d="M30,97.8c0.3,0.3,0.8,0.4,1.2,0.4c0.6,0,1.2-0.4,1.2-1.2c0-0.7-0.4-1.1-1.5-1.8c-1.1-0.7-2-1.3-2-2.7
		c0-1.5,1.2-2.4,2.7-2.4c1,0,1.5,0.2,2.1,0.2c-0.1,0.5-0.2,1.1-0.2,1.9c-0.1,0.1-0.4,0.1-0.4,0c-0.1-0.8-0.3-1.2-0.6-1.4
		c-0.3-0.2-0.6-0.3-1-0.3c-0.8,0-1.2,0.6-1.2,1.2c0,0.6,0.3,1,0.8,1.4c0.5,0.4,1,0.6,1.5,0.9c0.9,0.5,1.3,1.1,1.3,2.1
		c0,1.4-1.1,2.5-3,2.5c-0.9,0-1.7-0.3-2-0.4c-0.1-0.2-0.4-1.6-0.4-2.1c0-0.1,0.4-0.2,0.4-0.1C29.3,96.9,29.6,97.4,30,97.8"/>
	<path fill="#003A5D" d="M42.4,97.5c-0.8-0.9-1.1-2-1.1-3.1c0-1,0.3-2.1,1.1-2.8c0.7-0.8,1.9-1.4,3.3-1.4c2.7,0,4.1,1.9,4.1,4.1
		c0,1-0.2,2-0.8,2.7c-0.8,1.1-2.1,1.7-3.5,1.7C44.1,98.7,43.1,98.2,42.4,97.5 M47,97.7c0.6-0.6,0.9-1.8,0.9-2.9
		c0-1.4-0.4-2.8-1.3-3.5c-0.4-0.3-0.8-0.5-1.4-0.5c-0.4,0-0.8,0.1-1.1,0.3c-0.8,0.5-1.1,1.7-1.1,3c0,1.3,0.4,2.8,1.4,3.6
		c0.4,0.3,0.8,0.5,1.4,0.5C46.3,98.1,46.7,97.9,47,97.7"/>
	<path fill="#003A5D" d="M63.2,91c-0.5-0.3-1-0.3-1.5-0.3c-1.5,0-2.5,1.2-2.5,3.6c0,1.9,0.9,3.8,3.1,3.8c0.4,0,0.9-0.1,1.3-0.4
		c0.3-0.3,0.7-0.8,1-1.3c0.1,0,0.3,0.1,0.4,0.3c-0.2,0.6-0.7,1.6-1,1.8c-0.4,0.1-1.1,0.3-2,0.3c-2.9,0-4.6-1.5-4.6-4.3
		c0-1.5,0.7-2.9,2.1-3.6c0.7-0.4,1.5-0.6,2.6-0.6c1,0,2,0.2,2.6,0.2c-0.1,0.4-0.2,1.5-0.2,2.2c-0.1,0.1-0.4,0.1-0.5,0
		C63.8,91.7,63.7,91.3,63.2,91"/>
	<path fill="#003A5D" d="M72.6,90.3c0.4,0,1,0,1.8,0c1.1,0,1.6,0,1.9,0c0,0.1,0.1,0.4,0,0.4c-0.3,0-0.5,0.1-0.7,0.1
		c-0.3,0.1-0.3,0.3-0.3,0.7c0,0.5,0,1.5,0,2.6c0,1.5,0,2.6,0,3.1c0,0.3,0,0.6,0.4,0.7c0.2,0.1,0.5,0.1,0.7,0.1
		c0.1,0.1,0,0.4-0.1,0.4c-0.5,0-1,0-1.9,0c-1,0-1.5,0-2,0c-0.1-0.1-0.1-0.4,0-0.4c0.3,0,0.5-0.1,0.6-0.1c0.4-0.1,0.4-0.2,0.5-0.7
		c0-0.4,0-1.9,0-3.2c0-1.3,0-2,0-2.6c0-0.3-0.1-0.5-0.3-0.6c-0.2-0.1-0.4-0.1-0.7-0.1C72.5,90.7,72.5,90.4,72.6,90.3"/>
	<path fill="#003A5D" d="M84,90.3c0.5,0,1.2,0,1.9,0h2.6c0.5,0,1.2,0,1.6-0.1c0,0,0.1,0,0.1,0.1c-0.1,0.4-0.2,1.3-0.2,1.9
		c-0.1,0.1-0.4,0.1-0.5,0c-0.1-0.5-0.1-0.7-0.2-0.9C89.1,91.1,89,91,88.7,91c-0.3,0-1.7,0-1.9,0c-0.1,0-0.1,0.2-0.1,0.2
		c0,0.8,0,1.9,0,2.7c0,0.1,0,0.1,0.1,0.1c0.4,0,1.3,0,1.8,0c0.3,0,0.4-0.1,0.5-0.4c0.1-0.1,0.1-0.3,0.1-0.5c0.1-0.1,0.4,0,0.5,0
		c0,0.3-0.1,0.8-0.1,1.3c0,0.4,0,0.9,0,1.3c-0.1,0.1-0.4,0.1-0.5,0c-0.1-0.4-0.1-0.4-0.1-0.5c-0.1-0.2-0.2-0.3-0.4-0.4
		c-0.3,0-1.3,0-1.7,0c0,0-0.1,0.1-0.1,0.1c0,0.7,0,1.8,0,2.4c0,0.2,0.1,0.4,0.3,0.5c0.3,0.1,1.1,0.1,1.7,0.1c0.6,0,0.8-0.1,1-0.4
		c0.2-0.3,0.5-0.8,0.7-1.2c0.1,0,0.4,0.1,0.4,0.2c-0.1,0.3-0.4,1.5-0.6,1.9c-0.1,0.1-0.1,0.2-0.7,0.2c-1.1,0-2.2-0.1-3.6-0.1
		c-0.7,0-1.6,0-2.2,0c0-0.1,0-0.4,0-0.4c0.4,0,0.8-0.1,1-0.1c0.3-0.1,0.4-0.2,0.4-0.7c0-0.6,0-1.7,0-3.2c0-1.1,0-2.2,0-2.6
		c0-0.4-0.1-0.5-0.4-0.6c-0.2-0.1-0.4-0.1-0.7-0.1C83.9,90.7,84,90.4,84,90.3"/>
	<path fill="#003A5D" d="M104.2,98.5c-0.5,0-1.2,0-2,0c-1.1,0-1.8,0-2.2,0c-0.1-0.1,0-0.4,0-0.4c0.4,0,0.7-0.1,0.9-0.1
		c0.4-0.1,0.5-0.3,0.5-0.9c0.1-1.2,0-3.8,0-5.9c0,0,0-0.1-0.1-0.1c-0.2,0-1,0-1.4,0c-0.3,0-0.4,0.1-0.6,0.4
		c-0.2,0.3-0.3,0.7-0.5,1.2c-0.1,0-0.4,0-0.5-0.1c0.1-0.5,0.2-1.7,0.3-2.2c0,0,0.1-0.1,0.1-0.1c0.4,0.1,0.8,0.2,1.1,0.2h4.7
		c0.7,0,1.1-0.1,1.4-0.2c0,0,0.1,0.1,0.1,0.1c-0.1,0.5-0.3,1.5-0.3,2.3c0,0.1-0.4,0.1-0.5,0c-0.1-0.5-0.1-0.9-0.2-1.2
		c-0.1-0.3-0.3-0.4-0.5-0.4c-0.4,0-1.3,0-1.5,0c0,0-0.1,0.1-0.1,0.1c0,1.9,0,5.4,0,6.1c0,0.3,0.1,0.6,0.4,0.7
		c0.2,0.1,0.4,0.1,0.9,0.2C104.3,98.1,104.2,98.4,104.2,98.5"/>
	<path fill="#003A5D" d="M113.5,90.3c0.4,0,1.1,0,1.7,0c0.7,0,1.6,0,1.8,0c0.1,0,0.1,0.4,0,0.4c-0.1,0-0.3,0.1-0.4,0.1
		c-0.2,0.1-0.2,0.2-0.1,0.4c0.3,0.6,1.2,2.5,1.5,2.9c0,0,0.1,0,0.1,0c0.4-0.7,1.2-2.3,1.4-2.8c0.1-0.2,0-0.4-0.3-0.5
		c-0.2-0.1-0.4-0.1-0.6-0.1c0-0.1,0-0.4,0-0.4c0.4,0,0.9,0,1.5,0c0.7,0,1,0,1.4,0c0.1,0,0.1,0.4,0,0.4c-0.2,0-0.4,0.1-0.6,0.1
		c-0.4,0.1-0.6,0.3-0.9,0.9c-0.5,0.8-1.3,2.4-1.6,3c-0.1,0.2-0.1,0.3-0.1,0.6c0,0.6,0,1.2,0,1.8c0,0.5,0.1,0.7,0.4,0.8
		c0.2,0,0.4,0.1,0.8,0.1c0,0.1,0,0.4,0,0.4c-0.4,0-1.3,0-2,0c-1,0-1.5,0-1.9,0c-0.1,0-0.1-0.4,0-0.4c0.4,0,0.6-0.1,0.8-0.1
		c0.3-0.1,0.4-0.4,0.4-0.7c0-0.6,0-1.1,0-1.7c0-0.2-0.1-0.5-0.2-0.7c-0.3-0.6-1-2-1.5-2.9c-0.5-0.8-0.6-0.9-1-1
		c-0.2-0.1-0.4-0.1-0.6-0.1C113.4,90.7,113.5,90.4,113.5,90.3"/>
	<path fill="#003A5D" d="M34.8,84.4c-0.5-0.1-1.1-0.1-1.4-0.2c-0.7-0.2-0.7-0.7-0.8-1.2c0-0.9,0-2.9,0-5.7c0-2.1,0-4,0-4.8
		c0-0.7,0.1-1.1,0.6-1.2c0.3-0.1,0.7-0.1,1.2-0.2c0.1-0.1,0.1-0.7,0-0.8c-0.5,0-1.5,0.1-3.4,0.1c-1,0-1.8,0-2.4-0.1
		c-0.2,0.2-0.3,0.5-0.5,0.8c0.3,0,0.5,0.1,0.8,0.2c0.5,0.1,0.6,0.5,0.6,1.1c0,1.1,0,2.4,0,4.8c0,2.4,0,5.1,0,5.9
		c-0.1,0.8-0.2,1.1-0.8,1.2c-0.3,0.1-0.6,0.1-1.1,0.2c-0.1,0.1-0.1,0.7,0,0.8c0.9,0,1.7-0.1,3.6-0.1c1.5,0,2.6,0,3.4,0.1
		C34.8,85.1,34.9,84.5,34.8,84.4"/>
	<path fill="#003A5D" d="M36.8,70.1c0.9,0,1.6,0.1,3.4,0.1c1.7,0,2.6-0.1,3.4-0.1c0.1,0.1,0.1,0.7,0,0.8c-0.6,0.1-0.9,0.1-1.2,0.2
		c-0.6,0.2-0.6,0.4-0.6,1c0,0.6-0.1,2.3-0.1,4.8c0,2.6,0,5.3,0.1,6.1c0,0.4,0.3,0.7,0.5,0.7c0.6,0.1,2.3,0.2,3.4,0.1
		c0.5,0,0.9-0.2,1.4-0.8c0.5-0.6,1.1-1.9,1.5-2.9c0.1,0,0.8,0.1,0.8,0.3c-0.1,0.7-0.9,3.5-1.4,4.3c-0.1,0.2-0.3,0.3-1.3,0.3
		c-1.8,0-4.9-0.1-6.6-0.1c-1.6,0-2.8,0.1-3.6,0.1c-0.1-0.1-0.1-0.7,0-0.8c0.8-0.1,1-0.1,1.5-0.2c0.5-0.1,0.6-0.4,0.7-1
		c0.1-0.6,0.1-3.2,0.1-5.9c0-2.7,0-4.1,0-5c0-0.7-0.1-1-0.7-1.2c-0.3-0.1-0.8-0.1-1.3-0.2C36.6,70.8,36.7,70.2,36.8,70.1"/>
	<path fill="#003A5D" d="M49.5,70.1c0.5,0,2.7,0.1,3.4,0.1c1.7,0,2.5-0.1,4.5-0.1c2.1,0,3.8,0.5,5.1,1.6c1.6,1.3,2.4,3.4,2.4,5.6
		c0,2.9-1.2,4.8-2.6,6c-1.7,1.4-3.9,2-6.4,2c-1.4,0-3.4-0.1-5.6-0.1h-1c-0.1-0.1-0.1-0.8,0-0.8c0.6-0.1,1-0.1,1.5-0.2
		c0.5-0.1,0.7-0.4,0.8-1.2c0.1-1,0.1-3,0.1-5.7c0-2.2,0-4,0-5c-0.1-0.7-0.2-0.9-0.7-1.1c-0.3-0.1-0.9-0.2-1.3-0.2
		C49.3,70.8,49.4,70.2,49.5,70.1 M54.9,83.6c0.6,0.5,1.6,0.6,2.2,0.6c1,0,2-0.3,2.9-1.4c0.9-1.1,1.5-2.6,1.5-5.2
		c0-2.3-0.8-4.5-2.5-5.7c-0.9-0.7-2.1-0.9-3.4-0.9c-0.4,0-0.8,0-0.9,0.1c-0.1,0-0.2,0.2-0.2,0.4c0,0.8,0,3.8,0,6.1
		c0,2.3,0,4.5,0.1,5.1C54.5,83,54.7,83.4,54.9,83.6"/>
	<path fill="#003A5D" d="M65.8,70.1c0.8,0,2.2,0.1,3.5,0.1H74c0.9,0,2.2,0,2.9-0.1c0,0,0.1,0.1,0.1,0.1c-0.2,0.7-0.3,2.4-0.4,3.6
		c-0.1,0.1-0.7,0.1-0.9,0.1c-0.1-0.9-0.2-1.3-0.4-1.7c-0.2-0.5-0.6-0.7-1-0.7c-0.6,0-3.1,0-3.4,0c-0.1,0-0.3,0.3-0.3,0.4
		c0,1.5,0,3.4,0,4.9c0,0.1,0.1,0.2,0.1,0.2c0.7,0,2.5,0,3.3,0c0.5,0,0.7-0.3,0.8-0.8c0.1-0.3,0.1-0.6,0.2-0.9c0.1-0.1,0.8,0,0.9,0
		c0,0.6-0.1,1.5-0.1,2.4c0,0.8,0,1.7,0,2.4c-0.1,0.1-0.8,0.1-0.9,0c-0.2-0.7-0.1-0.7-0.2-1c-0.1-0.3-0.3-0.6-0.8-0.7
		c-0.5,0-2.4,0-3.2,0c-0.1,0-0.1,0.1-0.1,0.2c0,1.4,0,3.3,0,4.5c0,0.4,0.2,0.8,0.5,0.9c0.5,0.1,1.9,0.2,3.2,0.2
		c1.1,0,1.4-0.1,1.9-0.8c0.4-0.5,0.9-1.4,1.2-2.2c0.1,0,0.7,0.2,0.8,0.3c-0.1,0.6-0.7,2.7-1.1,3.5c-0.1,0.2-0.3,0.4-1.3,0.4
		c-2,0-4.1-0.1-6.7-0.1c-1.4,0-2.9,0.1-4.1,0.1c-0.1-0.1-0.1-0.7,0-0.8c0.8-0.1,1.4-0.2,1.8-0.3c0.5-0.1,0.7-0.4,0.7-1.2
		c0.1-1.1,0.1-3.1,0.1-5.9c0-2,0-4-0.1-4.7c0-0.8-0.2-1-0.7-1.1c-0.4-0.1-0.8-0.2-1.3-0.2C65.6,70.8,65.7,70.2,65.8,70.1"/>
	<path fill="#003A5D" d="M110.5,70.1c-0.4,0-1.6,0.1-2.7,0.1c-1.5,0-2.6-0.1-3.2-0.1c-0.1,0-0.1,0.7,0,0.8c0.6,0.1,1,0.1,1.5,0.3
		c0.7,0.2,1,0.6,1,1.4c0.1,1.6,0.1,5.3,0.1,8.4c0,0,0,0-0.1,0c-1.5-1.7-5.4-6.8-7.4-9.5c-0.5-0.7-0.8-1-0.9-1.3c-0.3,0-0.9,0-1.6,0
		c-1.4,0-2.6-0.1-3.4-0.1c-0.1,0.1-0.1,0.7,0,0.8c0.7,0.1,1.2,0.2,1.6,0.4c0.6,0.2,0.8,0.9,0.8,1.4c0,4.1-0.1,8.6-0.2,9.9
		c-0.1,0.8-0.3,1.2-0.8,1.4c-0.3,0.1-0.6,0.2-0.9,0.2c-0.8-0.1-1.1-0.3-1.8-1.1c-1.2-1.2-3.3-4.3-3.8-5.3c0,0,0-0.2,0-0.2
		c1.5-0.7,2.8-1.8,2.8-3.8c0-2.2-1.6-3.7-4.5-3.7c-1.3,0-2.6,0-4.4,0c-0.9,0-2.6-0.1-3.2-0.1c-0.1,0-0.2,0.6,0,0.8
		c0.5,0,0.9,0.1,1.2,0.2c0.5,0.1,0.7,0.4,0.7,1.1c0,1,0,2.8,0,5.2c0,1.5,0,4.8-0.1,5.5c0,0.8-0.2,1.1-0.7,1.2
		c-0.3,0.1-0.7,0.1-1.1,0.2c-0.1,0.1-0.1,0.7,0,0.8c0.5,0,1.6-0.1,3.4-0.1c1.8,0,2.9,0.1,3.4,0.1c0.1,0,0.2-0.7,0-0.8
		c-0.6-0.1-0.9-0.1-1.3-0.2c-0.5-0.1-0.7-0.4-0.7-1.2c0-1,0-2.7,0-4.2c0,0,0.1-0.1,0.1-0.1h1c0.3,0,0.5,0.1,0.7,0.4
		c0.8,1.3,2,3.5,3,4.7c0.2,0.3,0.7,0.8,1.2,1c0.9,0.5,3.2,0.6,4.5,0.5c0,0,4.4,0,5.2,0c0.1-0.1,0.1-0.7,0.1-0.8
		c-0.6-0.1-1-0.1-1.4-0.2c-0.7-0.1-1-0.5-1.1-1.5c-0.1-1.1-0.1-6.2,0-8.9c0,0,0.1-0.1,0.1,0c1.5,2,7.3,9.6,8.7,11.6
		c0.4-0.1,1.8-0.1,2.1,0c0-0.9,0-2.3,0-3.4c0-3.6,0-7.2,0.2-9.3c0.1-0.9,0.3-1.2,1-1.4c0.3-0.1,0.6-0.1,1-0.2
		C110.6,70.8,110.6,70.2,110.5,70.1 M87.2,77.3c-0.4,0.2-1.5,0.3-2.7,0.2c-0.1,0-0.1-0.1-0.1-0.2c0-2.8,0-5.1,0-5.7
		c0-0.1,0.1-0.3,0.2-0.4c0.2-0.1,0.6-0.1,0.7-0.1c2.1,0,3.2,1.4,3.2,3.5C88.5,76.2,87.9,76.9,87.2,77.3"/>
	<path fill="#003A5D" d="M111.9,70.1c0.8,0,2.2,0.1,3.5,0.1h4.8c0.9,0,2.2,0,2.9-0.1c0,0,0.1,0.1,0.1,0.1c-0.2,0.7-0.3,2.4-0.4,3.6
		c-0.1,0.1-0.7,0.1-0.9,0.1c-0.1-0.9-0.2-1.3-0.4-1.7c-0.2-0.5-0.5-0.7-1-0.7c-0.6,0-3.1,0-3.4,0c-0.1,0-0.3,0.3-0.3,0.4
		c0,1.5,0,3.4,0,4.9c0,0.1,0.1,0.2,0.1,0.2c0.7,0,2.5,0,3.3,0c0.5,0,0.7-0.3,0.8-0.8c0.1-0.3,0.1-0.6,0.2-0.9c0.1-0.1,0.8,0,0.9,0
		c0,0.6-0.1,1.5-0.1,2.4c0,0.8,0,1.7,0,2.4c-0.1,0.1-0.8,0.1-0.9,0c-0.2-0.7-0.1-0.7-0.2-1c-0.1-0.3-0.3-0.6-0.8-0.7
		c-0.5,0-2.4,0-3.2,0c-0.1,0-0.1,0.1-0.1,0.2c0,1.4,0,3.3,0,4.5c0,0.4,0.2,0.8,0.5,0.9c0.5,0.1,1.9,0.2,3.2,0.2
		c1.1,0,1.4-0.1,1.9-0.8c0.4-0.5,0.9-1.4,1.2-2.2c0.1,0,0.7,0.2,0.8,0.3c-0.1,0.6-0.7,2.7-1.1,3.5c-0.1,0.2-0.3,0.4-1.3,0.4
		c-2,0-4.1-0.1-6.6-0.1c-1.4,0-2.9,0.1-4.1,0.1c-0.1-0.1-0.1-0.7,0-0.8c0.8-0.1,1.4-0.2,1.8-0.3c0.5-0.1,0.7-0.4,0.7-1.2
		c0.1-1.1,0.1-3.1,0.1-5.9c0-2,0-4-0.1-4.7c0-0.8-0.2-1-0.7-1.1c-0.4-0.1-0.8-0.2-1.3-0.2C111.7,70.8,111.8,70.2,111.9,70.1"/>
	<path fill="#003A5D" d="M128.2,83.9c0.6,0.5,1.5,0.7,2.3,0.7c1.1,0,2.2-0.7,2.2-2.1c0-1.3-0.6-2-2.8-3.4c-2.1-1.3-3.7-2.5-3.7-4.9
		c0-2.8,2.2-4.3,5-4.3c1.8,0,2.8,0.3,3.9,0.4c-0.2,0.9-0.3,2.1-0.4,3.6c-0.1,0.1-0.7,0.1-0.8,0c-0.2-1.5-0.5-2.2-1.1-2.6
		c-0.5-0.4-1.1-0.5-1.9-0.5c-1.4,0-2.2,1-2.2,2.2c0,1.1,0.6,1.8,1.5,2.5c1,0.7,1.8,1.1,2.8,1.7c1.6,1,2.5,2.1,2.5,3.8
		c0,2.5-2,4.6-5.6,4.6c-1.6,0-3-0.5-3.6-0.8c-0.2-0.4-0.7-3-0.7-3.8c0.1-0.1,0.7-0.3,0.8-0.2C126.8,82.3,127.4,83.2,128.2,83.9"/>
	<path fill="#003A5D" d="M139.7,83.9c0.6,0.5,1.5,0.7,2.3,0.7c1.1,0,2.2-0.7,2.2-2.1c0-1.3-0.6-2-2.8-3.4c-2.1-1.3-3.7-2.5-3.7-4.9
		c0-2.8,2.3-4.3,5-4.3c1.8,0,2.8,0.3,3.9,0.4c-0.2,0.9-0.3,2.1-0.4,3.6c-0.1,0.1-0.7,0.1-0.8,0c-0.2-1.5-0.5-2.2-1.1-2.6
		c-0.5-0.4-1.1-0.5-1.9-0.5c-1.4,0-2.2,1-2.2,2.2c0,1.1,0.5,1.8,1.5,2.5c1,0.7,1.8,1.1,2.8,1.7c1.6,1,2.5,2.1,2.5,3.8
		c0,2.5-2,4.6-5.6,4.6c-1.6,0-3-0.5-3.6-0.8c-0.2-0.4-0.7-3-0.7-3.8c0.1-0.1,0.7-0.3,0.8-0.2C138.3,82.3,138.8,83.2,139.7,83.9"/>
	<path fill="#003A5D" d="M3,68c1.1,0,2,0.1,4,0.1c2.1,0,2.9-0.1,3.8-0.1c0.1,0.1,0.1,0.8,0,0.9c-0.6,0.1-1,0.2-1.3,0.4
		c-0.4,0.1-0.4,0.5-0.3,0.8C9.9,73,11.3,77.6,12,80c0.1,0.1,0.1,0,0.2,0c1.1-2.8,2.9-8.4,3.6-11c0.4,0.1,1.4,0.1,1.8,0
		c0.7,2.3,3.4,9.6,4.2,11.4c0,0,0.1,0,0.1-0.1c0.8-2.5,2.3-7.6,2.7-9.4c0.2-0.8,0.1-1.4-0.6-1.7c-0.5-0.2-0.9-0.3-1.7-0.4
		c-0.1-0.1-0.1-0.8,0-0.9c0.6,0,1.9,0.1,3.4,0.1c1.8,0,2.6-0.1,3.2-0.1c0.1,0.1,0.1,0.8,0,0.9c-0.5,0.1-0.8,0.2-1.2,0.3
		c-0.6,0.2-1,0.7-1.4,1.7c-1.3,3.5-3.6,10.9-4.7,14.4c-0.4,0-1.4-0.1-1.8,0c-0.7-2.2-3.2-9.3-4-11.3c0,0-0.1,0-0.1,0
		c-1.1,3.1-3.1,8.6-3.9,11.3c-0.4-0.1-1.4-0.1-1.8,0C9,81.8,6.6,73.8,5.6,71c-0.3-0.9-0.6-1.5-1.3-1.8c-0.5-0.2-0.7-0.2-1.4-0.3
		C2.8,68.8,2.9,68.1,3,68"/>
	<path fill="#003A5D" d="M2.7,61.7h57.1v-1.4H2.7V61.7z M89,61.7h57.4v-1.4H89V61.7z"/>
	<rect x="123.9" y="93.9" fill="#003A5D" width="22.3" height="1.4"/>
	<rect x="2.9" y="93.9" fill="#003A5D" width="22.3" height="1.4"/>
	<path fill="#003A5D" d="M68.7,63.8c-0.4,0-0.9,0-1.6,0c-0.9,0-1.4,0-1.7,0c-0.1,0,0-0.3,0-0.3c0.3,0,0.5-0.1,0.7-0.1
		c0.3-0.1,0.4-0.2,0.4-0.7c0-1,0-3,0-4.6c0,0,0-0.1-0.1-0.1c-0.2,0-0.8,0-1.1,0c-0.2,0-0.3,0.1-0.5,0.3c-0.1,0.2-0.3,0.5-0.4,0.9
		c0,0-0.3,0-0.4-0.1c0.1-0.4,0.2-1.3,0.2-1.7c0,0,0.1-0.1,0.1-0.1c0.3,0.1,0.6,0.1,0.9,0.1H69c0.5,0,0.8,0,1.1-0.1
		c0,0,0.1,0.1,0.1,0.1c-0.1,0.4-0.2,1.2-0.2,1.8c0,0-0.3,0.1-0.4,0c0-0.4-0.1-0.7-0.2-0.9C69.3,58.1,69.2,58,69,58c-0.3,0-1,0-1.2,0
		c0,0,0,0,0,0.1c0,1.5,0,4.2,0,4.8c0,0.3,0.1,0.4,0.3,0.5c0.2,0.1,0.3,0.1,0.7,0.1C68.8,63.5,68.8,63.8,68.7,63.8"/>
	<path fill="#003A5D" d="M70.8,57.5c0.2,0,0.7,0,1.4,0c0.8,0,1.1,0,1.4,0c0,0.1,0,0.3,0,0.3c-0.2,0-0.4,0.1-0.5,0.1
		c-0.2,0.1-0.3,0.2-0.3,0.5c0,0.5,0,1.1,0,1.8c0,0,0,0.1,0.1,0.1c0.1,0,0.2,0,1.5,0c0.8,0,1.1,0,1.3,0c0,0,0.1,0,0.1-0.1
		c0-0.5,0-1.4,0-1.9c0-0.1-0.1-0.3-0.2-0.3c-0.1-0.1-0.3-0.1-0.6-0.1c0,0,0-0.3,0-0.3c0.4,0,0.8,0,1.5,0c0.7,0,1.1,0,1.4,0
		c0,0,0,0.3,0,0.3c-0.2,0-0.4,0.1-0.5,0.1C77.1,58,77,58.1,77,58.4c0,0.6,0,1.1,0,2.4c0,0.8,0,1.7,0,2.1c0,0.3,0.1,0.4,0.2,0.5
		c0.1,0.1,0.3,0.1,0.6,0.1c0,0,0,0.3,0,0.3c-0.3,0-0.8,0-1.5,0c-0.6,0-1.2,0-1.5,0c0,0,0-0.3,0-0.3c0.2,0,0.4-0.1,0.5-0.1
		c0.2-0.1,0.3-0.2,0.3-0.5c0-0.4,0-1.3,0-2c0,0,0-0.1-0.1-0.1c-0.2,0-0.8,0-1.3,0c-1,0-1.4,0-1.4,0c0,0,0,0.1,0,0.1
		c0,0.6,0,1.5,0,1.9c0,0.3,0,0.5,0.3,0.6c0.1,0,0.3,0.1,0.6,0.1c0,0.1,0,0.3,0,0.3c-0.2,0-0.7,0-1.5,0c-0.7,0-1.2,0-1.4,0
		c0,0,0-0.3,0-0.3c0.2,0,0.3-0.1,0.5-0.1c0.3-0.1,0.3-0.2,0.4-0.7c0-0.2,0-1.2,0-2.1c0-1,0-2,0-2.3c0-0.3-0.1-0.4-0.3-0.5
		c-0.2-0.1-0.3-0.1-0.6-0.1C70.8,57.8,70.8,57.5,70.8,57.5"/>
	<path fill="#003A5D" d="M78.8,57.5c0.4,0,1,0,1.5,0h2c0.4,0,0.9,0,1.2-0.1c0,0,0,0,0,0c-0.1,0.3-0.1,1-0.2,1.5
		c-0.1,0-0.3,0.1-0.4,0c0-0.4-0.1-0.6-0.2-0.7c-0.1-0.2-0.2-0.3-0.4-0.3c-0.2,0-1.3,0-1.5,0c-0.1,0-0.1,0.1-0.1,0.2
		c0,0.6,0,1.5,0,2.1c0,0,0,0.1,0.1,0.1c0.3,0,1,0,1.4,0c0.2,0,0.3-0.1,0.4-0.3c0-0.1,0.1-0.2,0.1-0.4c0.1,0,0.3,0,0.4,0
		c0,0.2-0.1,0.7-0.1,1c0,0.3,0,0.7,0,1c-0.1,0-0.3,0.1-0.4,0c-0.1-0.3-0.1-0.3-0.1-0.4c-0.1-0.1-0.1-0.3-0.3-0.3c-0.2,0-1,0-1.4,0
		c0,0-0.1,0.1-0.1,0.1c0,0.6,0,1.4,0,1.9c0,0.2,0.1,0.3,0.2,0.4c0.2,0,0.8,0.1,1.3,0.1c0.5,0,0.6-0.1,0.8-0.3
		c0.2-0.2,0.4-0.6,0.5-0.9c0.1,0,0.3,0.1,0.3,0.1c-0.1,0.3-0.3,1.2-0.4,1.5c0,0.1-0.1,0.2-0.6,0.2c-0.9,0-1.7,0-2.8,0
		c-0.6,0-1.2,0-1.7,0c0-0.1,0-0.3,0-0.3c0.3,0,0.6-0.1,0.8-0.1c0.2,0,0.3-0.2,0.3-0.5c0-0.5,0-1.3,0-2.5c0-0.8,0-1.7,0-2
		c0-0.3-0.1-0.4-0.3-0.5c-0.2,0-0.3-0.1-0.5-0.1C78.7,57.8,78.7,57.5,78.8,57.5"/>
	<path fill="#FFFFFF" d="M87.1,46.5c-3.7,0-8.7-0.9-12.9-2.1C66.3,42,60.7,41,55.8,41c-1.9,0-3.8,0.2-5.6,0.5
		c-1,0.2-1.9,0.5-2.6,0.8c-1.3-3.3-2-6.8-2-10.5C45.6,15.9,58.5,3,74.4,3c15.9,0,28.8,12.9,28.8,28.8
		C103.2,38.4,100.5,46.6,87.1,46.5"/>
	<path fill="#648C1A" d="M66.4,34.6l4.6,6.6c0.7,0.2,1.3,0.4,2,0.6l-6.4-7.4L66.4,34.6z M64.1,37.6l1.8,2.3c0.4,0.1,0.8,0.2,1.2,0.3
		c-1.4-1.5-2.4-2.6-2.7-2.9L64.1,37.6z M69,31.2L69,31.2l-0.3,0.3l0,0l7.8,11.3c0.9,0.2,1.8,0.4,2.7,0.6L69,31.2L69,31.2z
		 M52.7,26.2L47.7,32c0,2.5,0.4,5.1,1.1,7.5c0.3-0.1,0.6-0.1,0.9-0.2c2-0.4,3.9-0.5,6-0.5c2.1,0,4.4,0.2,6.8,0.6
		c-0.4-0.5-0.8-1.1-1.4-1.9L52.7,26.2z M100.3,25.9l-6.2,8.9c0,0,0,0,0,0L80.2,16.6h0l-0.8,1.1v2.8c-0.7-0.8-1.1-1.3-1.1-1.3l0,0
		l-0.3,0.4l0,0l1.4,2v3.8c0,0-3-3.5-3.1-3.6c0,0,0,0,0,0L76,22.1l0,0l3.3,4.8V31c-2.8-3.3-5.3-6.2-5.4-6.3l0,0v0L73.7,25l0,0l5.6,8
		V37c-3.7-4.4-7.8-9.1-7.8-9.1l0,0l0,0l-0.2,0.3l0,0l8,11.6v3.6c0.3,0.1,0.6,0.1,0.8,0.2l0,0v0c0.3,0.1,0.6,0.1,0.8,0.2
		c0,0,0.1,0,0.1,0L91,32l0.1,0.2L83,44c1.2,0.2,2.3,0.2,3.4,0.3l7.2-9l0.2,0.2L88,44.3c0.9,0,1.9-0.1,2.9-0.3c0,0,0,0,0,0
		c0.3,0,0.5-0.1,0.8-0.1c0,0,0.1,0,0.1,0l4.2-5.3l0.2,0.2c0,0-2.2,3.6-2.9,4.7c7.7-2.9,7.8-10.4,7.8-11.7
		C101,29.8,100.8,27.8,100.3,25.9 M81,20.6l0.7-0.8l0.2,0.3L81,21.5V20.6z M81,25.4l2.7-2.9l0.2,0.2L81,26.9V25.4z M81,31l5-5.5
		l0.1,0.2L81,33.1V31z M81,39.8V37l7.5-8.3l0.1,0.2L81,39.8z"/>
	<path fill="#003A5D" d="M104.9,31.8c0-16.9-13.7-30.5-30.5-30.5C57.5,1.3,43.9,15,43.9,31.8c0,4.1,0.8,7.9,2.2,11.5
		c-2.3,1.9-1.8,4.7,1.8,7c-0.3-0.6-0.5-1.6,0.5-2.4c0.1-0.1,0.2-0.1,0.3-0.2c0,0,0,0,0,0c0.1-0.1,0.2-0.1,0.3-0.2c0,0,0,0,0.1,0
		c0.1-0.1,0.2-0.1,0.4-0.2c0,0,0,0,0.1,0c0.1-0.1,0.3-0.1,0.4-0.2c0.4-0.1,0.8-0.2,1.3-0.3c5.8-1,12-0.3,22.2,2.7
		c9,2.7,18.6,3.1,24.9-1.6c0,0,0.1-0.1,0.1-0.1c0.8-0.6,1.6-1.4,2.3-2.2C102.2,43.8,104.9,40.1,104.9,31.8 M87.1,46.5
		c-3.7,0-8.7-0.9-12.9-2.1C66.3,42,60.7,41,55.8,41c-1.9,0-3.8,0.2-5.6,0.5c-1,0.2-1.9,0.5-2.6,0.8c-1.3-3.3-2-6.8-2-10.5
		C45.6,15.9,58.5,3,74.4,3c15.9,0,28.8,12.9,28.8,28.8C103.2,38.4,100.5,46.6,87.1,46.5"/>
	<path fill="#003A5D" d="M70.6,50.9c-0.5-0.2-1-0.3-1.5-0.4c-1-0.3-2-0.6-3-0.8c-3.6-0.9-7.2-1.3-10-1.3c-0.6,0-1.2,0-1.7,0.1
		c-0.6,0.1-1.2,0.1-1.8,0.2c-0.4,0.1-0.7,0.2-1,0.3v0c-0.1,0-0.2,0.1-0.4,0.1c0,0,0,0,0,0c-0.1,0-0.2,0.1-0.3,0.1c0,0,0,0,0,0
		c-0.1,0-0.2,0.1-0.3,0.1c0,0,0,0,0,0c-0.1,0.1-0.2,0.1-0.2,0.2c-0.7,0.6-0.7,1.3-0.5,1.7c0,0,0,0,0,0c0,0,0,0,0,0c0,0,1,0.7,4,1.3
		c-0.2-0.7,0.5-1.3,1.8-1.7c0.5-0.1,1.1-0.2,1.7-0.3c1.2-0.2,2.7-0.3,4.4-0.3c2.7,0,5.7,0.3,8.7,0.9c0,0,0.2,0,0.3-0.1
		C70.7,50.9,70.6,50.9,70.6,50.9"/>
	<path fill="#003A5D" d="M74.4,5.2C60.9,5.2,49.7,15.3,48,28.4l4.8-5.7l9.9,13.1L80.2,13l13.9,18l5.5-7.9C96,12.7,86,5.2,74.4,5.2
		 M64.8,17.7c-2,0-3.6-1.6-3.6-3.6c0-2,1.6-3.6,3.6-3.6c2,0,3.6,1.6,3.6,3.6C68.3,16.2,66.7,17.7,64.8,17.7"/>
</g>
</svg>
